<?xml version="1.0" encoding="UTF-8" standalone="no"?>
<svg
   width="476.95721"
   height="275.6882"
   stroke-linecap="round"
   version="1.1"
   id="svg69"
   sodipodi:docname="full_bridge.svg"
   inkscape:version="1.1.2 (0a00cf5339, 2022-02-04)"
   xmlns:inkscape="http://www.inkscape.org/namespaces/inkscape"
   xmlns:sodipodi="http://sodipodi.sourceforge.net/DTD/sodipodi-0.dtd"
   xmlns="http://www.w3.org/2000/svg"
   xmlns:svg="http://www.w3.org/2000/svg">
  <sodipodi:namedview
     id="namedview71"
     pagecolor="#ffffff"
     bordercolor="#111111"
     borderopacity="1"
     inkscape:pageshadow="0"
     inkscape:pageopacity="0"
     inkscape:pagecheckerboard="1"
     showgrid="false"
     inkscape:zoom="0.75150804"
     inkscape:cx="128.40847"
     inkscape:cy="103.12598"
     inkscape:window-width="2490"
     inkscape:window-height="1376"
     inkscape:window-x="70"
     inkscape:window-y="27"
     inkscape:window-maximized="1"
     inkscape:current-layer="svg69" />
  <defs
     id="defs9">
    <filter
       id="pencilTextureFilter"
       x="-0.32083405"
       y="-0.13571924"
       width="1.6305587"
       height="1.2719605"
       filterUnits="objectBoundingBox">
      <feTurbulence
         type="fractalNoise"
         baseFrequency="2"
         numOctaves="5"
         stitchTiles="stitch"
         result="f1"
         id="feTurbulence2" />
      <feColorMatrix
         type="matrix"
         values="0 0 0 0 0, 0 0 0 0 0, 0 0 0 0 0, 0 0 0 -1.5 1.5"
         result="f2"
         id="feColorMatrix4" />
      <feComposite
         operator="in"
         in="SourceGraphic"
         in2="f2"
         result="f3"
         id="feComposite6" />
    </filter>
  </defs>
  <g
     filter="url(#pencilTextureFilter)"
     id="g15"
     style="stroke:#ffffff;stroke-width:1.6;stroke-miterlimit:4;stroke-dasharray:none"
     transform="translate(26.375121,8.8663621)">
    <path
       d="m 73.683,89.786 c -1.289,3.685 1.065,-3.256 2.5,-8.929 m -2.5,8.929 c 3.034,-3.936 6.587,-7.817 2.5,-8.929 m 0,0 C 78.619,73.665 69.08,64.912 74.398,56.928 m 1.785,23.929 C 74.03,79.7 73.645,61.964 74.398,56.928 m 0,0 C 76.18,47.641 85.445,43.434 93.683,33.357 M 74.398,56.928 C 74.144,52.822 88.3,43.489 93.683,33.357 m 0,0 C 103.175,27.67 157.05,13.268 162.612,7.643 M 93.683,33.357 C 105.692,31.44 156.735,12.023 162.612,7.643 m 0,0 c 10.27,-2.199 24.604,-6.986 35,-7.143 m -35,7.143 c 4.87,-7.081 27.63,-11.136 35,-7.143 m 0,0 c 9.996,-1.265 55.159,11.989 60.714,12.857 M 197.612,0.5 c 9.676,2.261 56.964,8.98 60.714,12.857 m 0,0 c 14.268,4.85 48.428,22.809 56.786,33.572 M 258.326,13.357 c 15.254,5.107 47.8,26.52 56.786,33.572 m 0,0 c -2.57,1.046 0.902,10.345 2.5,8.928 m -2.5,-8.928 c 4.572,-1.655 -0.978,11.741 2.5,8.928"
       stroke="rgb(0, 0, 0)"
       stroke-width="1"
       fill="none"
       id="path13"
       style="stroke:#ffffff;stroke-width:1.6;stroke-miterlimit:4;stroke-dasharray:none" />
  </g>
  <g
     filter="url(#pencilTextureFilter)"
     id="g19"
     style="stroke:#ffffff;stroke-width:1.6;stroke-miterlimit:4;stroke-dasharray:none"
     transform="translate(26.375121,8.8663621)">
    <path
       d="m 245.469,13.714 c 0.097,-0.025 29.261,11.922 40,18.215 m 0,0 c 12.142,11.673 18.253,14.769 32.143,23.928 m 0,0 c 17.53,13.235 29.054,19.729 31.428,26.429 m 0,0 c 0.22,6.17 -2.452,27.062 -5.714,35.357 m 0,0 c -0.894,4.634 2.756,13.915 0,19.642 m 0,0 c -1.323,10.102 -6.065,43.336 -6.429,48.215 m 0,0 c 2.705,9.568 3.674,23.874 6.072,30 m 0,0 c 7.48,3.63 38.505,14.534 44.285,19.642 m 0,0 c 4.353,-0.285 1.787,9.803 -5.714,11.429 m 0,0 c -1.119,1.709 -22.753,-2.878 -27.857,-0.357 m 0,0 c -1.665,-2.133 -11.123,-9.028 -17.857,-6.072 m 0,0 c -6.531,-1.725 -14.658,-1.959 -20.714,-2.142 m 0,0 c -4.234,-3.928 -6.839,-6.535 -6.072,-11.072 m 0,0 c 1.172,0.191 4.084,-9.361 5,-15.714 m 0,0 c -0.563,-7.549 -7.731,-55.171 -9.643,-69.643 m 0,0 c 1.929,-7.934 7.162,-32.189 7.143,-35.357 m 0,0 c -0.937,-7.145 -6.748,-7.059 -13.571,-11.428 m 0,0 c -10.414,-6.219 -44.533,-18.852 -47.857,-22.5 m 0,0 c -1.746,-3.625 -23.193,6.794 -36.786,3.214 m 0,0 C 206.344,73.175 184.797,59.813 179.755,61.928 m 0,0 c 0.067,3.182 -24.274,10.389 -31.072,14.643 m 0,0 c -4.939,1.95 -3.026,6.118 -6.071,7.5 m 0,0 c -0.474,5.469 -15.314,7.949 -13.929,8.572 m 0,0 c 2.752,2.389 -8.455,-13.602 -25.714,-13.215 m 0,0 C 86.017,81.299 70.134,88.56 73.683,89.786"
       stroke="rgb(0, 0, 0)"
       stroke-width="1"
       fill="none"
       id="path17"
       style="stroke:#ffffff;stroke-width:1.6;stroke-miterlimit:4;stroke-dasharray:none" />
  </g>
  <g
     filter="url(#pencilTextureFilter)"
     id="g23"
     style="stroke:#ffffff;stroke-width:1.6;stroke-miterlimit:4;stroke-dasharray:none"
     transform="translate(26.375121,8.8663621)">
    <path
       d="m 189.04,0.857 c -1.028,3.549 14.83,22.7 17.857,36.429 m 0,0 c 3.983,9.619 8.365,37.496 10.358,38.571"
       stroke="rgb(0, 0, 0)"
       stroke-width="1"
       fill="none"
       id="path21"
       style="stroke:#ffffff;stroke-width:1.6;stroke-miterlimit:4;stroke-dasharray:none" />
  </g>
  <g
     filter="url(#pencilTextureFilter)"
     id="g27"
     style="stroke:#ffffff;stroke-width:1.6;stroke-miterlimit:4;stroke-dasharray:none"
     transform="translate(26.375121,8.8663621)">
    <path
       d="m 305.112,152.285 c 1.596,0.159 14.201,11.237 19.285,8.929 m 0,0 c 4.269,3.678 19.444,-7.187 16.072,-3.571"
       stroke="rgb(0, 0, 0)"
       stroke-width="1"
       fill="none"
       id="path25"
       style="stroke:#ffffff;stroke-width:1.6;stroke-miterlimit:4;stroke-dasharray:none" />
  </g>
  <g
     filter="url(#pencilTextureFilter)"
     id="g31"
     style="stroke:#ffffff;stroke-width:1.6;stroke-miterlimit:4;stroke-dasharray:none"
     transform="translate(26.375121,8.8663621)">
    <path
       d="m 284.04,88 c 2.013,-2.519 3.199,10.45 -0.714,13.214 m 0,0 c 3.111,4.876 13.315,54.784 12.5,61.429 m 0,0 c 4.067,6.945 -9.572,17.367 -1.429,22.142 m 0,0 c 9.499,4.208 19.872,4.217 16.072,3.572"
       stroke="rgb(0, 0, 0)"
       stroke-width="1"
       fill="none"
       id="path29"
       style="stroke:#ffffff;stroke-width:1.6;stroke-miterlimit:4;stroke-dasharray:none" />
  </g>
  <g
     filter="url(#pencilTextureFilter)"
     id="g35"
     style="stroke:#ffffff;stroke-width:1.6;stroke-miterlimit:4;stroke-dasharray:none"
     transform="translate(26.375121,8.8663621)">
    <path
       d="m 285.112,111.571 c 0.352,-3.665 9.309,6.495 13.214,5 m 0,0 c 3.921,-1.864 13.964,-0.993 11.428,-0.714 m 0,0 c 0,0 0,0 0,0 m 0,0 c 0,0 0,0 0,0"
       stroke="rgb(0, 0, 0)"
       stroke-width="1"
       fill="none"
       id="path33"
       style="stroke:#ffffff;stroke-width:1.6;stroke-miterlimit:4;stroke-dasharray:none" />
  </g>
  <g
     filter="url(#pencilTextureFilter)"
     id="g39"
     style="stroke:#ffffff;stroke-width:1.6;stroke-miterlimit:4;stroke-dasharray:none"
     transform="translate(26.375121,8.8663621)">
    <path
       d="m 337.901,171.034 c 0.605,-2.763 9.774,0.987 9.47,4.672 m 0,0 c 5.112,4.941 4.101,0.23 5.24,4.988 m 0,0 c -4.313,-2.104 -12.21,6.356 -15.72,4.293"
       stroke="rgb(0, 0, 0)"
       stroke-width="1"
       fill="none"
       id="path37"
       style="stroke:#ffffff;stroke-width:1.6;stroke-miterlimit:4;stroke-dasharray:none" />
  </g>
  <g
     filter="url(#pencilTextureFilter)"
     id="g43"
     style="stroke:#ffffff;stroke-width:1.6;stroke-miterlimit:4;stroke-dasharray:none"
     transform="translate(26.375121,8.8663621)">
    <path
       d="m 128.683,92.643 c 3.584,-0.038 -16.592,20.546 -21.071,23.75 m 21.071,-23.75 c -1.715,4.218 -16.077,24.672 -21.071,23.75 m 0,0 c -1.792,2.854 -22.434,20.514 -24.821,26.785 m 24.821,-26.785 c -4.876,4.089 -20.437,19.31 -24.821,26.785 m 0,0 c -4.376,3.307 -12.416,8.158 -18.929,12.679 m 18.929,-12.679 c -8.71,2.336 -16.848,14.289 -18.929,12.679 m 0,0 c -1.213,4.508 -10.68,12.574 -15,15.893 m 15,-15.893 c -0.291,-1.219 -11.984,14.558 -15,15.893 m 0,0 c -0.059,1.306 -5.735,8.309 -9.821,16.25 m 9.821,-16.25 c -3.164,5.166 -8.588,6.588 -9.821,16.25 m 0,0 c -5.951,7.483 -27.528,30.233 -23.929,33.214 M 39.041,188 c -4.145,9.273 -22.269,30.447 -23.929,33.214 m 0,0 c 4.788,2.805 -0.267,-1.102 5.268,3.75 m -5.268,-3.75 c 1.108,4.725 3.589,5.082 5.268,3.75 m 0,0 c 5.646,4.808 22.978,-0.59 22.143,0.536 M 20.38,224.964 c 3.13,5.722 19.856,-4.428 22.143,0.536 m 0,0 c 4.324,-1.317 10.758,1.926 11.428,3.214 M 42.523,225.5 c 1.944,-0.572 15.04,-2.187 11.428,3.214 m 0,0 c 3.203,0.42 4.921,3.291 1.25,2.321 m -1.25,-2.321 c -2.021,5.334 -1.648,2.088 1.25,2.321 m 0,0 c -4.1,-2.209 -7.365,-3.288 -11.16,-1.964 m 11.16,1.964 c 1.226,4.551 -13.31,-6.471 -11.16,-1.964 m 0,0 c 6.753,4.684 8.969,1.277 14.129,4.263 m -14.129,-4.263 c 4.462,3.139 9.212,4.406 14.129,4.263 m 0,0 c 2.276,1.983 0.969,1.364 1.339,1.317 m -1.339,-1.317 c -2.309,-4.327 4.183,-1.484 1.339,1.317 m 0,0 c -2.516,3.779 -1.336,-0.449 -1.227,2.054 m 1.227,-2.054 c -1.232,1.479 0.361,5.532 -1.227,2.054 m 0,0 c -3.961,-0.984 -11.916,-1.695 -13.661,-4.241 m 13.661,4.241 C 55.37,234.026 41.59,227.919 44.621,232.464 m 0,0 c 4.904,1.612 4.115,2.862 11.607,4.286 m -11.607,-4.286 c 3.955,0.834 5.563,1.143 11.607,4.286 m 0,0 c -1.945,2.522 2.605,-0.923 -0.402,1.294 m 0.402,-1.294 c -1.25,2.704 2.341,1.648 -0.402,1.294 m 0,0 c -2.91,2.303 0.818,0.386 -1.785,0.982 m 1.785,-0.982 c 3.259,-1.702 -2.831,-3.356 -1.785,0.982 m 0,0 C 49.9,242.429 41.094,235.969 40.96,235.723 m 13.081,3.303 c -1.802,1.595 -17.098,-7.105 -13.081,-3.303 m 0,0 c 2.629,0.801 2.064,0.558 5.491,2.366 m -5.491,-2.366 c 0.907,0.334 2.82,0.894 5.491,2.366 m 0,0 c 0.405,3.124 -0.6,-3.154 0.402,0.625 m -0.402,-0.625 c -1.011,3.272 -0.533,3.035 0.402,0.625 m 0,0 c -1.175,3.496 -4.12,5.337 -1.607,1.786 m 1.607,-1.786 c -4.081,-0.937 2.006,-0.093 -1.607,1.786 m 0,0 c 0.106,0.655 -18.834,1.658 -17.966,0.803 M 45.246,240.5 c 1.203,1.603 -14.153,-2.57 -17.966,0.803 m 0,0 C 24.019,238.6 12.474,240.826 8.592,241.05 m 18.688,0.253 c -4.02,0.685 -20.129,5.384 -18.688,-0.253 m 0,0 C 3.141,239.505 -2.699,230.154 0.51,230.444 m 8.082,10.606 c 1.151,-4.864 -9.837,-3.888 -8.082,-10.606 m 0,0 c -1.439,-2.161 13.833,-49.05 16.037,-52.402 M 0.51,230.444 c 2.248,-2.391 14.321,-51.325 16.037,-52.402 m 0,0 c 0.952,-0.943 18.952,-22.693 22.349,-30.431 m -22.349,30.431 c 1.948,-2.581 17.149,-21.547 22.349,-30.431 m 0,0 C 39.337,139.818 68.44,125.1 66.928,118.696 m -28.032,28.915 c 2.488,-3.668 29.362,-26.245 28.032,-28.915 m 0,0 c 0.236,-1.082 3.422,-27.368 6.755,-28.91 m -6.755,28.91 c -2.953,-7.082 9.22,-28.735 6.755,-28.91 m 0,0 c 3.72,-3.116 -29.679,26.602 -33.398,30.425 M 73.683,89.786 C 78.1,93.615 43.331,119.28 40.285,120.211 m 0,0 c -0.779,6.849 -17.263,45.665 -18.324,49.172 m 18.324,-49.172 c -1.753,5.013 -18.623,47.838 -18.324,49.172"
       stroke="rgb(0, 0, 0)"
       stroke-width="1"
       fill="none"
       id="path41"
       style="stroke:#ffffff;stroke-width:1.6;stroke-miterlimit:4;stroke-dasharray:none" />
  </g>
  <g
     filter="url(#pencilTextureFilter)"
     id="g47"
     style="stroke:#ffffff;stroke-width:1.6;stroke-miterlimit:4;stroke-dasharray:none"
     transform="translate(26.375121,8.8663621)">
    <path
       d="m 49.313,136.184 c -1.745,3.769 -4.728,-6.258 -1.578,-4.609 m 0,0 c -0.225,-2.001 1.404,-7.103 3.662,-5.808 m 0,0 c 4.042,-3.067 6.609,-8.376 10.796,-8.271 m 0,0 c 1.599,-5.149 9.772,-14.201 8.284,-12.567"
       stroke="rgb(0, 0, 0)"
       stroke-width="1"
       fill="none"
       id="path45"
       style="stroke:#ffffff;stroke-width:1.6;stroke-miterlimit:4;stroke-dasharray:none" />
  </g>
  <g
     filter="url(#pencilTextureFilter)"
     id="g51"
     style="stroke:#ffffff;stroke-width:1.6;stroke-miterlimit:4;stroke-dasharray:none"
     transform="translate(26.375121,8.8663621)">
    <path
       d="m 108.975,114.403 c -1.031,1.72 16.332,5.852 15.279,8.46 m -15.279,-8.46 c -2.862,-0.9 12.663,6.982 15.279,8.46 m 0,0 c -1.66,3.252 7.024,3.981 4.167,11.49 m -4.167,-11.49 c -0.892,0.703 9.127,10.234 4.167,11.49 m 0,0 c -3.185,4.869 -5.589,20.938 -10.48,29.295 m 10.48,-29.295 c -1.208,5.62 -9.45,25.661 -10.48,29.295 m 0,0 c 0.088,5.034 -8.008,5.769 -15.784,9.596 m 15.784,-9.596 c -0.829,8.442 -8.786,9.753 -15.784,9.596 m 0,0 c -7.149,4.01 -10.898,4.842 -18.183,-1.263 m 18.183,1.263 c -5.326,-1.421 -14.223,2.453 -18.183,-1.263 m 0,0 c -4.077,-2.325 -12.297,-4.424 -14.521,-7.828 m 14.521,7.828 c -8.302,1.06 -12.689,-5.332 -14.521,-7.828 m 0,0 c -1.873,-3.625 -5.796,-8.629 -5.682,-8.208 m 5.682,8.208 c -2.96,2.426 -9.012,-7.002 -5.682,-8.208"
       stroke="rgb(0, 0, 0)"
       stroke-width="1"
       fill="none"
       id="path49"
       style="stroke:#ffffff;stroke-width:1.6;stroke-miterlimit:4;stroke-dasharray:none" />
  </g>
  <g
     filter="url(#pencilTextureFilter)"
     id="g55"
     style="stroke:#ffffff;stroke-width:1.6;stroke-miterlimit:4;stroke-dasharray:none"
     transform="translate(26.375121,8.8663621)">
    <path
       d="m 84.984,171.981 c -2.013,2.335 -1.133,-16.144 -3.156,-20.329 m 0,0 c 1.04,-4.984 9.738,0.818 15.026,-3.914 m 0,0 c -0.446,-2.675 2.393,-6.993 0.126,-9.471 m 0,0 c -4.231,-5.698 -2.084,-7.951 -4.925,-5.177"
       stroke="rgb(0, 0, 0)"
       stroke-width="1"
       fill="none"
       id="path53"
       style="stroke:#ffffff;stroke-width:1.6;stroke-miterlimit:4;stroke-dasharray:none" />
  </g>
  <g
     filter="url(#pencilTextureFilter)"
     id="g59"
     style="stroke:#ffffff;stroke-width:1.6;stroke-miterlimit:4;stroke-dasharray:none"
     transform="translate(26.375121,8.8663621)">
    <path
       d="m 125.138,145.97 c -2.265,3.359 0.23,2.577 3.535,2.904 m -3.535,-2.904 c 4.525,-1.085 1.922,2.412 3.535,2.904 m 0,0 c 0.761,-0.466 20.131,9.188 21.845,16.541 m -21.845,-16.541 c 3.035,4.13 19.07,16.617 21.845,16.541 m 0,0 c -0.036,2.313 10.557,29.223 13.258,32.83 m -13.258,-32.83 c 1.263,0.214 8.51,32.687 13.258,32.83 m 0,0 c -1.86,-0.042 0.464,4.571 4.798,7.576 m -4.798,-7.576 c -3.862,1.064 0.365,9.637 4.798,7.576 m 0,0 c 3.491,1.7 4.767,3.716 3.788,2.147 m -3.788,-2.147 c -1.376,-1.525 -0.366,-0.19 3.788,2.147 m 0,0 c -3.36,-0.792 -7.973,-1.949 -6.944,0.126 m 6.944,-0.126 c 3.184,4.488 -2.64,5.388 -6.944,0.126 m 0,0 c -0.472,-0.646 -4.229,-2.985 -6.44,-4.293 m 6.44,4.293 c -6.886,-4.008 -7.117,0.25 -6.44,-4.293 m 0,0 c 1.902,0.876 2.403,1.46 2.525,4.798 m -2.525,-4.798 c 3.024,0.198 0.481,2.132 2.525,4.798 m 0,0 c 3.294,0.333 0.3,0.904 3.915,4.041 m -3.915,-4.041 c -2.147,0.774 4.122,2.332 3.915,4.041 m 0,0 c -0.08,2.365 -4.8,0.748 -8.46,-3.031 m 8.46,3.031 c 1.694,-3.852 -5.575,-1.173 -8.46,-3.031 m 0,0 c 0.264,1.484 -6.51,1.01 -2.905,-2.272 m 2.905,2.272 c -4.297,2.87 -0.765,0.678 -2.905,-2.272 m 0,0 c -0.407,-2.213 0.71,0.3 0.253,5.429 m -0.253,-5.429 c -2.011,-1.616 5.939,1.799 0.253,5.429 m 0,0 c 2.375,6.151 -2.855,1.439 -5.43,4.798 m 5.43,-4.798 c -3.845,-1.102 -8.598,0.599 -5.43,4.798 m 0,0 c 3.191,1.101 -2.35,-2.08 1.389,-4.545 m -1.389,4.545 c -0.234,-0.262 4.097,-6.106 1.389,-4.545 m 0,0 c -1.828,-1.513 1.769,-10.483 -0.126,-6.819 m 0.126,6.819 c 4.03,-3.425 0.337,-8.424 -0.126,-6.819 m 0,0 c 1.97,0.146 -0.534,2.696 -4.798,5.935 m 4.798,-5.935 c -1.183,-2.463 -0.388,9.095 -4.798,5.935 m 0,0 c -6.175,2.059 -15.662,-0.666 -14.016,1.136 m 14.016,-1.136 c 0.885,-3.228 -15.303,4.143 -14.016,1.136 m 0,0 c -0.258,-2.802 4.304,0.018 5.303,-7.45 m -5.303,7.45 c 2.591,1.881 3.622,-1.576 5.303,-7.45 m 0,0 c 3.848,-7.213 -4.726,-21.078 -7.197,-27.526 m 7.197,27.526 c 1.506,-8.364 -7.543,-21.444 -7.197,-27.526 m 0,0 c 0.752,-7.913 -1.964,-16.56 -1.263,-20.33 m 1.263,20.33 c -1.242,-1.691 -3.296,-14.151 -1.263,-20.33 m 0,0 c -2.87,-6.138 -9.063,-4.148 -5.682,-4.419 m 5.682,4.419 c -1.718,-5.265 -5.287,-7.904 -5.682,-4.419"
       stroke="rgb(0, 0, 0)"
       stroke-width="1"
       fill="none"
       id="path57"
       style="stroke:#ffffff;stroke-width:1.6;stroke-miterlimit:4;stroke-dasharray:none" />
  </g>
  <g
     filter="url(#pencilTextureFilter)"
     id="g63"
     style="stroke:#ffffff;stroke-width:1.6;stroke-miterlimit:4;stroke-dasharray:none"
     transform="translate(26.375121,8.8663621)">
    <path
       d="m 128.507,148.007 c 1.344,2.709 -0.218,3.481 -1.987,7.121"
       stroke="rgb(0, 0, 0)"
       stroke-width="1"
       fill="none"
       id="path61"
       style="stroke:#ffffff;stroke-width:1.6;stroke-miterlimit:4;stroke-dasharray:none" />
  </g>
  <g
     filter="url(#pencilTextureFilter)"
     id="g67"
     style="stroke:#ffffff;stroke-width:1.6;stroke-miterlimit:4;stroke-dasharray:none"
     transform="translate(26.375121,8.8663621)">
    <path
       d="m 40.425,185.321 c -0.924,-2.8 3.919,1.176 4.419,2.679 m 0,0 c 4.932,0.997 14.57,1.101 12.411,1.919 m 0,0 c 4.305,1.698 9.534,0.903 10.536,4.911 m 0,0 c 3.625,0.283 2.262,3.218 -0.759,1.741 m 0,0 c 0.819,1.66 -16.773,0.178 -13.081,-1.339 m 0,0 c -3.459,-3.569 4.312,1.195 5.536,3.839 m 0,0 c -1.612,0.441 1.166,2.693 0.357,1.652 m 0,0 c 1.75,-2.091 -6.876,-0.975 -4.062,-0.179 m 0,0 c -1.577,-3.292 -4.521,-4.917 -9.018,-4.508 m 0,0 c -3.851,1.932 0.199,0.634 -2.813,0 m 0,0 c 2.056,0.157 1.048,3.204 2.947,3.08 m 0,0 c -0.169,0.951 -1.549,1.038 0,1.518 m 0,0 c -1.991,2.582 1.097,1.903 -4.866,0.625 m 0,0 c -4.369,1.599 -9.99,-0.3 -8.329,-1.798 m 0,0 c -0.561,-1.221 -1.724,1.503 -2.099,-1.2"
       stroke="rgb(0, 0, 0)"
       stroke-width="1"
       fill="none"
       id="path65"
       style="stroke:#ffffff;stroke-width:1.6;stroke-miterlimit:4;stroke-dasharray:none" />
  </g>
</svg>
