<?xml version="1.0" encoding="UTF-8" standalone="no"?>
<svg
   width="208.93146"
   height="450.1134"
   stroke-linecap="round"
   version="1.1"
   id="svg73"
   sodipodi:docname="horse_stance.svg"
   inkscape:version="1.1.2 (0a00cf5339, 2022-02-04)"
   xmlns:inkscape="http://www.inkscape.org/namespaces/inkscape"
   xmlns:sodipodi="http://sodipodi.sourceforge.net/DTD/sodipodi-0.dtd"
   xmlns="http://www.w3.org/2000/svg"
   xmlns:svg="http://www.w3.org/2000/svg">
  <sodipodi:namedview
     id="namedview75"
     pagecolor="#ffffff"
     bordercolor="#111111"
     borderopacity="1"
     inkscape:pageshadow="0"
     inkscape:pageopacity="0"
     inkscape:pagecheckerboard="1"
     showgrid="false"
     inkscape:zoom="1.8224427"
     inkscape:cx="56.243194"
     inkscape:cy="227.9907"
     inkscape:window-width="2490"
     inkscape:window-height="1376"
     inkscape:window-x="70"
     inkscape:window-y="27"
     inkscape:window-maximized="1"
     inkscape:current-layer="svg73" />
  <defs
     id="defs9">
    <filter
       id="pencilTextureFilter"
       x="-0.26308253"
       y="-0.16383795"
       width="1.5270865"
       height="1.3277192"
       filterUnits="objectBoundingBox">
      <feTurbulence
         type="fractalNoise"
         baseFrequency="2"
         numOctaves="5"
         stitchTiles="stitch"
         result="f1"
         id="feTurbulence2" />
      <feColorMatrix
         type="matrix"
         values="0 0 0 0 0, 0 0 0 0 0, 0 0 0 0 0, 0 0 0 -1.5 1.5"
         result="f2"
         id="feColorMatrix4" />
      <feComposite
         operator="in"
         in="SourceGraphic"
         in2="f2"
         result="f3"
         id="feComposite6" />
    </filter>
  </defs>
  <g
     filter="url(#pencilTextureFilter)"
     id="g15"
     style="stroke:#ffffff"
     transform="matrix(-1,0,0,1,196.85663,23.831557)">
    <path
       d="m 73.155,78.703 c -1.89,-1.767 3.402,-5.496 1.538,-6.439 m -1.538,6.439 c 1.515,0.282 2.246,-5.378 1.538,-6.439 M 91.55,56.354 c -1.532,0.687 0.384,9.43 -9.218,12.753 M 91.55,56.354 c 0.818,1.92 -3.236,9.77 -9.218,12.753 m 0,0 C 73.129,71.816 70.371,75.335 65.791,73.4 M 82.332,69.107 C 75.902,74.18 67.241,76.673 65.791,73.4 m 0,0 C 64.053,70.411 57.223,56.268 55.184,43.474 M 65.791,73.4 C 63.324,70.652 55.754,56.757 55.184,43.474 m 0,0 c 0.961,-12.872 8.985,-27.919 7.45,-27.652 m -7.45,27.652 c 0.217,-9.704 7.095,-29.211 7.45,-27.652 m 0,0 C 62.178,15.17 61.722,11.941 60.55,9.508 m 2.084,6.314 C 62.017,17.833 58.062,12.101 60.55,9.508 m 0,0 C 63.144,5.703 63.731,5.241 64.717,2.879 M 60.55,9.508 c 0.325,-1.253 0.748,-7.146 4.167,-6.629 m 0,0 C 66.459,2.526 84.309,-2.737 93.38,2.69 M 64.717,2.879 C 66.971,2.551 82.353,-1.051 93.38,2.69 m 0,0 c 11.078,5.192 23.598,12.787 23.865,18.624 M 93.38,2.69 c 7.821,2.756 21.828,15.736 23.865,18.624 m 0,0 c 0.888,5.784 1.749,10.345 0.253,13.069 m -0.253,-13.069 c -0.523,4.406 2.931,8.467 0.253,13.069 m 0,0 C 116.01,37.25 103.8,53.447 104.891,56.796 m 12.607,-22.413 c -0.14,2.202 -13.358,17.773 -12.607,22.413 m 0,0 c -0.34,4.298 -8.387,10.167 -5.874,11.995 m 5.874,-11.995 c 0.093,4.408 -8.674,8.708 -5.874,11.995 m 0,0 c -0.202,1.004 4.228,8.763 4.965,10.466 M 99.017,68.791 c -0.651,2.323 2.922,10.612 4.965,10.466 m 0,0 c 1.638,-1.87 13.085,9.998 15.401,14.131 M 103.982,79.257 c 1.046,-1.005 10.565,8.681 15.401,14.131 m 0,0 c 5.005,4.641 9.476,14.759 10.536,18.928 M 119.383,93.388 c 2.945,4.505 10.645,15.102 10.536,18.928 m 0,0 c -0.231,2.636 3.066,32.761 2.962,35.49 m -2.962,-35.49 c -0.338,4.256 0.934,32.005 2.962,35.49 m 9.091,35.359 c 1.636,3.222 17.945,14.264 23.571,20.144 m -23.571,-20.144 c 0.091,3.371 21.433,15.168 23.571,20.144 m 0,0 c 5.022,6.327 7.711,12.091 6.566,19.445 m -6.566,-19.445 c 2.182,5.183 6.334,14.092 6.566,19.445 m 0,0 c -0.211,5.931 -24.915,40.994 -24.496,41.543 m 24.496,-41.543 c 0.168,5.918 -24.928,41.989 -24.496,41.543 m 0,0 c 0.016,0.167 0.027,0.277 0.126,0.505 m -0.126,-0.505 c 0.051,0.167 0.075,0.274 0.126,0.505"
       stroke="rgb(0, 0, 0)"
       stroke-width="1"
       fill="none"
       id="path13"
       style="stroke:#ffffff" />
  </g>
  <g
     filter="url(#pencilTextureFilter)"
     id="g19"
     style="stroke:#ffffff;stroke-width:1.8;stroke-miterlimit:4;stroke-dasharray:none"
     transform="matrix(-1,0,0,1,196.85663,23.831557)">
    <path
       d="m 62.634,15.822 c -0.429,1.218 5.557,-0.092 9.249,-2.077 m 0,0 c 3.806,-1.442 19.196,-0.041 23.75,-0.714 m 0,0 c 4.772,-1.53 12.156,-1.154 11.786,-2.232"
       stroke="rgb(0, 0, 0)"
       stroke-width="1"
       fill="none"
       id="path17"
       style="stroke:#ffffff;stroke-width:1.8;stroke-miterlimit:4;stroke-dasharray:none" />
  </g>
  <g
     filter="url(#pencilTextureFilter)"
     id="g23"
     style="stroke:#ffffff;stroke-width:1.8;stroke-miterlimit:4;stroke-dasharray:none"
     transform="matrix(-1,0,0,1,196.85663,23.831557)">
    <path
       d="m 83.58,13.567 c -1.667,-1.049 -1.875,8.808 -1.608,8.839 m 0,0 c 1.296,-0.149 2.254,20.086 1.608,22.589 m 0,0 c -1.077,1.916 5.293,1.219 5,-0.268 m 0,0 c 0.005,-0.087 3.891,-6.966 4.732,-7.053 m 0,0 c 0.621,-1.173 6.042,-1.057 6.875,2.232 m 0,0 C 99.143,41.824 99.8,52.032 99.83,54.549 m 0,0 c -0.754,2.346 4.389,3.079 4.598,4.33"
       stroke="rgb(0, 0, 0)"
       stroke-width="1"
       fill="none"
       id="path21"
       style="stroke:#ffffff;stroke-width:1.8;stroke-miterlimit:4;stroke-dasharray:none" />
  </g>
  <g
     filter="url(#pencilTextureFilter)"
     id="g27"
     style="stroke:#ffffff;stroke-width:1.8;stroke-miterlimit:4;stroke-dasharray:none"
     transform="matrix(-1,0,0,1,196.85663,23.831557)">
    <path
       d="m 146.729,251.038 c -0.223,-1.589 -3.093,4.655 -2.652,4.42 m 0,0 c -1.966,0.78 -0.417,6.5 3.536,8.839 m 0,0 c 4.318,2.742 13.993,18.922 15.278,28.536 m 0,0 c 1.097,10.67 11.645,57.665 12.249,63.387 m 0,0 c 1.224,4.398 4.722,12.264 6.187,12.248 m 0,0 c 1.028,0.102 -1.094,5.528 -0.126,7.955 m 0,0 c -0.429,1.053 3.917,4.032 3.283,8.082 m 0,0 c -1.959,4.201 -1.545,3.941 -4.294,7.323 m 0,0 c -1.076,2.768 -3.242,8.981 -6.313,9.975 m 0,0 c -1.336,2.987 -5.787,7.164 -12.122,6.314 m 0,0 c -7.612,1.13 -21.378,-1.417 -26.769,-2.525 m 0,0 c -6.005,-3.872 17.04,-22.506 18.562,-28.537 m 0,0 c 0.747,-5.979 3.243,-19.302 -1.263,-27.906 m 0,0 c -4.485,-9.571 -23.01,-35.224 -22.476,-41.037 m 0,0 c -3.252,-5.348 -5.648,-26.63 -8.081,-30.178 m 0,0 c -3.8,-5.814 -12.184,-13.781 -14.395,-21.214 m 0,0 c -2.715,-5.918 -4.956,-11.849 -4.924,-16.793 m 0,0 c 0.864,-5.309 10.729,-25.209 15.846,-27.211 m 24.465,-0.726 c 6.12,4.64 7.984,9.263 11.206,13.794 m 0,0 c -0.375,5.944 5.352,22.13 4.041,22.729"
       stroke="rgb(0, 0, 0)"
       stroke-width="1"
       fill="none"
       id="path25"
       style="stroke:#ffffff;stroke-width:1.8;stroke-miterlimit:4;stroke-dasharray:none" />
  </g>
  <g
     filter="url(#pencilTextureFilter)"
     id="g31"
     style="stroke:#ffffff;stroke-width:1.8;stroke-miterlimit:4;stroke-dasharray:none"
     transform="matrix(-1,0,0,1,196.85663,23.831557)">
    <path
       d="m 124.979,200.452 c -6.248,3.594 -7.408,8.438 -10.827,8.791 m 0,0 c -7.397,3.419 -11.793,8.537 -16.668,6.819 m 0,0 c -4.537,1.526 -14.053,-11.3 -16.541,-14.774 m 0,0 c -3.735,-5.523 -2.862,-5.925 -4.672,-10.859 m 0,0 c -4.76,-4.423 -9.199,-7.655 -10.354,-11.364 m 0,0 c -1.05,-3.522 -0.009,-55.183 -1.177,-64.695 m 0,0 c -0.232,-8.041 5.665,-12.424 5.536,-15.714 m 0,0 c 0.252,-1.405 4.512,-1.892 4.464,-4.465 m 0,0 C 75.292,90.99 71.385,79.674 73.155,78.703"
       stroke="rgb(0, 0, 0)"
       stroke-width="1"
       fill="none"
       id="path29"
       style="stroke:#ffffff;stroke-width:1.8;stroke-miterlimit:4;stroke-dasharray:none" />
  </g>
  <g
     filter="url(#pencilTextureFilter)"
     id="g35"
     style="stroke:#ffffff;stroke-width:1.8;stroke-miterlimit:4;stroke-dasharray:none"
     transform="matrix(-1,0,0,1,196.85663,23.831557)">
    <path
       d="m 109.633,94.013 c -0.852,-0.58 5.883,3.948 6.786,9.107 m 0,0 c 2.994,3.214 -0.732,4.941 1.428,10.714 m 0,0 c 2.619,5.401 5.081,7.337 6.607,14.822 m 0,0 c 2.388,5.732 1.65,9.057 4.108,13.393 m 0,0 c 4.107,0.974 5.531,7.724 8.392,14.107 m 0,0 c 0.982,4.077 5.436,19.17 5,28.392 m 0,0 c -0.993,8.406 -0.441,31.099 1.072,31.072 m 0,0 c -1.559,-1.641 4.142,1.816 3.214,5.625 m 0,0 c 0.147,1.143 0.641,8.584 2.054,11.518 m 0,0 c -0.82,2.781 -11.784,10.781 -13.393,9.285 m 0,0 c -0.497,0.746 -6.68,-3.634 -7.5,-7.5 m 0,0 c -0.056,-0.453 -3.856,-10.183 -3.839,-10.535 m 0,0 c -1.189,-1.584 7.291,-5.066 7.053,-5.179"
       stroke="rgb(0, 0, 0)"
       stroke-width="1"
       fill="none"
       id="path33"
       style="stroke:#ffffff;stroke-width:1.8;stroke-miterlimit:4;stroke-dasharray:none" />
  </g>
  <g
     filter="url(#pencilTextureFilter)"
     id="g39"
     style="stroke:#ffffff;stroke-width:1.8;stroke-miterlimit:4;stroke-dasharray:none"
     transform="matrix(-1,0,0,1,196.85663,23.831557)">
    <path
       d="m 127.222,214.906 c -0.471,0.801 -3.666,1.907 -3.214,2.589 m 3.214,-2.589 c 0.534,1.2 -1.907,-1.059 -3.214,2.589 m 0,0 c -0.698,0.566 -0.706,8.989 -0.714,9.464 m 0.714,-9.464 c -0.343,-0.762 -2.731,6.96 -0.714,9.464 m 0,0 c -0.792,1.138 -0.551,2.955 -2.59,4.107 m 2.59,-4.107 c -0.631,-0.392 -1.608,6.416 -2.59,4.107 m 0,0 c -0.036,0.537 -3.164,-10.203 -5,-9.821 m 5,9.821 c -1.933,-0.56 -4.478,-8.962 -5,-9.821 m 0,0 c -0.774,-0.138 2.454,-10.308 4.375,-12.143 m -4.375,12.143 c 1.427,-1.548 4.435,-11.612 4.375,-12.143 m 0,0 c 0.791,1.103 6.66,0.427 7.233,-1.696 m -7.233,1.696 c 0.697,-2.642 7.233,-1.992 7.233,-1.696 m 0,0 c 2.43,-1.487 -10.179,-21.097 -9.554,-25.625 m 9.554,25.625 c 2.345,-2.054 -11.143,-20.092 -9.554,-25.625 m 0,0 c -2.172,-3.462 -1.33,-13.516 -2.5,-16.965 m 2.5,16.965 c -0.923,-2.721 -0.116,-14.3 -2.5,-16.965 m 0,0 c -1.178,-3.723 -13.235,-21.223 -14.464,-23.303 m 14.464,23.303 c 0.499,-4.09 -11.905,-19.737 -14.464,-23.303 m 0,0 c -2.438,-3.265 -7.324,-20.515 -8.84,-21.875 m 8.84,21.875 c -1.565,-4.706 -6.327,-20.967 -8.84,-21.875 m 0,0 c -2.257,-0.512 -6.791,-3.045 -4.91,-2.947 m 4.91,2.947 c -0.11,-2.289 -4.502,-0.821 -4.91,-2.947"
       stroke="rgb(0, 0, 0)"
       stroke-width="1"
       fill="none"
       id="path37"
       style="stroke:#ffffff;stroke-width:1.8;stroke-miterlimit:4;stroke-dasharray:none" />
  </g>
  <g
     filter="url(#pencilTextureFilter)"
     id="g43"
     style="stroke:#ffffff;stroke-width:1.8;stroke-miterlimit:4;stroke-dasharray:none"
     transform="matrix(-1,0,0,1,196.85663,23.831557)">
    <path
       d="m 102.865,244.727 c 0.744,-1.66 -13.198,0.559 -18.393,0.357 m 0,0 c -7.271,0.766 -26.303,-9.139 -29.642,-8.928 m 0,0 c -3.46,-1.82 -8.041,-1.307 -8.482,0.268"
       stroke="rgb(0, 0, 0)"
       stroke-width="1"
       fill="none"
       id="path41"
       style="stroke:#ffffff;stroke-width:1.8;stroke-miterlimit:4;stroke-dasharray:none" />
  </g>
  <g
     filter="url(#pencilTextureFilter)"
     id="g47"
     style="stroke:#ffffff;stroke-width:1.8;stroke-miterlimit:4;stroke-dasharray:none"
     transform="matrix(-1,0,0,1,196.85663,23.831557)">
    <path
       d="m 51.973,236.245 c -0.141,1.153 9.035,8.741 6.785,12.946 m 0,0 c -2.234,2.194 -3.422,24.821 -2.946,31.429 m 0,0 c -0.797,6.623 0.68,25.069 4.018,26.785 m 0,0 c 1.598,4.646 3.745,6.723 3.214,7.947 m 0,0 c -1.053,1.57 -1.508,5.027 -5.089,5.714 m 0,0 c -2.481,1.445 -13.531,-1.544 -19.822,-2.41 m 0,0 c -6.785,-1.73 -34.6,0.449 -35.357,1.339 m 0,0 c -4.311,-0.234 -4.055,-2.028 -1.786,-4.465 m 0,0 c 1.314,-0.305 33.631,-10.024 33.393,-12.589 m 0,0 c 2.44,-1.553 6.284,-7.47 4.286,-11.161 m 0,0 C 38.407,289.964 21.972,229.436 20.723,224.727 m 0,0 c -1.022,-4.685 0.494,-15.712 3.214,-15.982 m 0,0 c 1.471,-1.66 31.378,-9.285 34.196,-9.554 m 0,0 c 3.086,-0.158 22.963,-3.231 21.339,-1.875"
       stroke="rgb(0, 0, 0)"
       stroke-width="1"
       fill="none"
       id="path45"
       style="stroke:#ffffff;stroke-width:1.8;stroke-miterlimit:4;stroke-dasharray:none" />
  </g>
  <g
     filter="url(#pencilTextureFilter)"
     id="g51"
     style="stroke:#ffffff;stroke-width:1.8;stroke-miterlimit:4;stroke-dasharray:none"
     transform="matrix(-1,0,0,1,196.85663,23.831557)">
    <path
       d="m 75.722,197.406 c 0.06,-0.311 -5.937,18.556 -5.803,25.178 m 0,0 c -0.76,5.287 -1.328,17.677 0.357,18.482"
       stroke="rgb(0, 0, 0)"
       stroke-width="1"
       fill="none"
       id="path49"
       style="stroke:#ffffff;stroke-width:1.8;stroke-miterlimit:4;stroke-dasharray:none" />
  </g>
  <g
     filter="url(#pencilTextureFilter)"
     id="g55"
     style="stroke:#ffffff;stroke-width:1.8;stroke-miterlimit:4;stroke-dasharray:none"
     transform="matrix(-1,0,0,1,196.85663,23.831557)">
    <path
       d="m 49.115,201.602 c 0.05,0.892 1.001,-6.356 1.161,-5.536 m 0,0 c -0.585,0.233 5.443,-2.289 5.357,-2.946 m 0,0 c -1.372,0.508 -0.48,-19.205 -0.714,-22.232 m 0,0 c 1.398,-2.528 11.399,-49.335 9.507,-48.829"
       stroke="rgb(0, 0, 0)"
       stroke-width="1"
       fill="none"
       id="path53"
       style="stroke:#ffffff;stroke-width:1.8;stroke-miterlimit:4;stroke-dasharray:none" />
  </g>
  <g
     filter="url(#pencilTextureFilter)"
     id="g59"
     style="stroke:#ffffff;stroke-width:1.8;stroke-miterlimit:4;stroke-dasharray:none"
     transform="matrix(-1,0,0,1,196.85663,23.831557)">
    <path
       d="m 73.261,197.68 c -0.44,0.837 2.217,-4.501 -0.089,-3.929 m 0,0 c 0.007,-0.342 -1.911,-3.857 -3.036,-4.643 m 0,0 c 0.158,-1.042 -1.446,-3.396 0.12,-5.23"
       stroke="rgb(0, 0, 0)"
       stroke-width="1"
       fill="none"
       id="path57"
       style="stroke:#ffffff;stroke-width:1.8;stroke-miterlimit:4;stroke-dasharray:none" />
  </g>
  <g
     filter="url(#pencilTextureFilter)"
     id="g63"
     style="stroke:#ffffff;stroke-width:1.8;stroke-miterlimit:4;stroke-dasharray:none"
     transform="matrix(-1,0,0,1,196.85663,23.831557)">
    <path
       d="m 121.854,97.243 c -1.416,0.246 -7.155,-4.365 -9.66,-7.071 m 0,0 c -4.979,-2.139 -8.912,-0.597 -12.563,0.757 m 0,0 c -2.923,1.387 -10.078,6.042 -11.87,9.218 m 0,0 c -3.45,3.612 -6.165,11.636 -6.124,14.584 m 0,0 c -1.845,2.357 1.67,17.608 1.263,20.014 m 0,0 c 1.431,1.324 4.19,6.487 9.218,10.606 m 0,0 c 6.055,1.501 11.339,1.883 12.352,2.745"
       stroke="rgb(0, 0, 0)"
       stroke-width="1"
       fill="none"
       id="path61"
       style="stroke:#ffffff;stroke-width:1.8;stroke-miterlimit:4;stroke-dasharray:none" />
  </g>
  <g
     filter="url(#pencilTextureFilter)"
     id="g67"
     style="stroke:#ffffff;stroke-width:1.8;stroke-miterlimit:4;stroke-dasharray:none"
     transform="matrix(-1,0,0,1,196.85663,23.831557)">
    <path
       d="m 124.443,129.063 c -1.795,1.942 0.45,-11.397 1.578,-14.269 m 0,0 c 0.232,-2.648 -1.358,-10.269 -1.831,-11.617 m 0,0 c 0.011,-2.58 -0.882,-5.839 -1.567,-4.649"
       stroke="rgb(0, 0, 0)"
       stroke-width="1"
       fill="none"
       id="path65"
       style="stroke:#ffffff;stroke-width:1.8;stroke-miterlimit:4;stroke-dasharray:none" />
  </g>
  <g
     filter="url(#pencilTextureFilter)"
     id="g71"
     style="stroke:#ffffff;stroke-width:1.8;stroke-miterlimit:4;stroke-dasharray:none"
     transform="matrix(-1,0,0,1,196.85663,23.831557)">
    <path
       d="m 112.441,86.044 c 1.73,-0.194 -5.189,-2.085 -7.076,-2.388 m 7.076,2.388 c -1.502,-1.639 -6.277,-1.399 -7.076,-2.388 m 0,0 c -1.636,0.729 -7.367,1.285 -10.893,3.214 m 10.893,-3.214 c -0.135,0.371 -8.041,1.415 -10.893,3.214 m 0,0 C 92.026,86.021 82.186,96.725 81.169,99.906 M 94.472,86.87 C 91.206,86.366 83.848,98.897 81.169,99.906 m 0,0 c -3.43,1.243 -3.417,20.297 -6.024,19.973 m 6.024,-19.973 c -2.756,1.482 -6.04,18.35 -6.024,19.973 m 0,0 c 0.075,0.351 -2.955,3.449 -4.732,2.768 m 4.732,-2.768 c -3.485,0.106 -4.184,2.427 -4.732,2.768 m 0,0 c -4.38,-9.139 -2.827,-16.354 0.22,-24.438 m -0.22,24.438 c -2.736,-10.515 -0.621,-15.116 0.22,-24.438"
       stroke="rgb(0, 0, 0)"
       stroke-width="1"
       fill="none"
       id="path69"
       style="stroke:#ffffff;stroke-width:1.8;stroke-miterlimit:4;stroke-dasharray:none" />
  </g>
</svg>
