<?xml version="1.0" encoding="UTF-8" standalone="no"?>
<svg
   width="507.93338"
   height="453.33606"
   stroke-linecap="round"
   version="1.1"
   id="svg83"
   sodipodi:docname="l_sit.svg"
   inkscape:version="1.1.2 (0a00cf5339, 2022-02-04)"
   xmlns:inkscape="http://www.inkscape.org/namespaces/inkscape"
   xmlns:sodipodi="http://sodipodi.sourceforge.net/DTD/sodipodi-0.dtd"
   xmlns="http://www.w3.org/2000/svg"
   xmlns:svg="http://www.w3.org/2000/svg">
  <sodipodi:namedview
     id="namedview85"
     pagecolor="#ffffff"
     bordercolor="#111111"
     borderopacity="1"
     inkscape:pageshadow="0"
     inkscape:pageopacity="0"
     inkscape:pagecheckerboard="1"
     showgrid="false"
     inkscape:zoom="1.0427981"
     inkscape:cx="407.07784"
     inkscape:cy="333.23805"
     inkscape:window-width="2490"
     inkscape:window-height="1376"
     inkscape:window-x="70"
     inkscape:window-y="27"
     inkscape:window-maximized="1"
     inkscape:current-layer="svg83" />
  <defs
     id="defs9">
    <filter
       id="pencilTextureFilter"
       x="-0.26246314"
       y="-0.29906543"
       width="1.5284252"
       height="1.5981309"
       filterUnits="objectBoundingBox">
      <feTurbulence
         type="fractalNoise"
         baseFrequency="2"
         numOctaves="5"
         stitchTiles="stitch"
         result="f1"
         id="feTurbulence2" />
      <feColorMatrix
         type="matrix"
         values="0 0 0 0 0, 0 0 0 0 0, 0 0 0 0 0, 0 0 0 -1.5 1.5"
         result="f2"
         id="feColorMatrix4" />
      <feComposite
         operator="in"
         in="SourceGraphic"
         in2="f2"
         result="f3"
         id="feComposite6" />
    </filter>
  </defs>
  <g
     filter="url(#pencilTextureFilter)"
     id="g17"
     style="stroke:#ffffff;stroke-width:1.6;stroke-miterlimit:4;stroke-dasharray:none"
     transform="translate(57.570743,57.226273)">
    <path
       d="m 346.88,131.858 c -3.545,0.633 -1.336,-4.295 1.866,-4.258 2.794,-1.388 2.554,-6.4 6.51,-7.236 2.885,0.038 5.158,-3.991 4.788,-1.528 0.238,-1.453 -2.385,3.622 -2.98,2.95 -2.606,2.838 -7.737,6.759 -6.691,6.562 -0.661,-0.101 -2.893,3.879 -3.493,3.51 0,0 0,0 0,0"
       stroke="none"
       stroke-width="0"
       fill="#e6e6e6"
       id="path13"
       style="stroke:#ffffff;stroke-width:1.6;stroke-miterlimit:4;stroke-dasharray:none" />
    <path
       d="m 346.88,131.858 c -1.686,1.246 2.85,-2.623 1.866,-4.258 m 0,0 c 0.529,-2.886 3.935,-6.781 6.51,-7.236 m 0,0 c 1.799,-1.153 5.958,-1.958 4.788,-1.528 m 0,0 c 0.785,1.64 -3.201,1.786 -2.98,2.95 m 0,0 c 0.221,0.477 -3.508,5.225 -6.691,6.562 m 0,0 c -2.042,1.005 -3.296,2.29 -3.493,3.51 m 0,0 c 0,0 0,0 0,0"
       stroke="rgb(230, 230, 230)"
       stroke-width="1.512"
       fill="none"
       stroke-dashoffset="37.795"
       id="path15"
       style="stroke:#ffffff;stroke-width:1.6;stroke-miterlimit:4;stroke-dasharray:none" />
  </g>
  <g
     filter="url(#pencilTextureFilter)"
     id="g21"
     style="stroke:#ffffff;stroke-width:1.6;stroke-miterlimit:4;stroke-dasharray:none"
     transform="translate(57.570743,57.226273)">
    <path
       d="m 366.575,30.11 c 0.561,-1.205 -0.468,1.741 -0.632,5.24 m 0.632,-5.24 c 1.131,-0.335 0.183,2.464 -0.632,5.24 m 0,0 c 2.26,3.064 4.581,4.283 5.935,7.64 m -5.935,-7.64 c -1.135,3.088 3.085,6.67 5.935,7.64 m 0,0 c -0.138,2.56 -0.568,6.795 1.831,8.144 m -1.831,-8.144 c 0.357,2.295 1.53,4.763 1.831,8.144 m 0,0 c 1.919,0.013 2.56,4.08 3.978,2.525 m -3.978,-2.525 c -1.165,3.643 4.118,0.897 3.978,2.525 m 0,0 c 2.04,-0.131 7.616,-6.154 7.702,-5.934 m -7.702,5.934 c 1.705,1.292 8.617,-7.541 7.702,-5.934 m 0,0 c -0.55,1.607 5.565,-0.476 7.324,-1.2 m -7.324,1.2 c 1.395,-1.198 3.695,-2.579 7.324,-1.2 m 0,0 c 0.971,0.932 5.325,8.798 7.071,8.46 m -7.071,-8.46 c 0.793,2.579 5.975,5.125 7.071,8.46 m 0,0 c -0.471,0.284 -0.82,14.751 -1.2,15.594 m 1.2,-15.594 c 0.136,0.688 -2.217,13.899 -1.2,15.594 m 0,0 c 1.444,2.315 6.869,5.218 4.988,4.483 m -4.988,-4.483 c 3.159,4.169 3.857,4.265 4.988,4.483"
       stroke="rgb(0, 0, 0)"
       stroke-width="1"
       fill="none"
       id="path19"
       style="stroke:#ffffff;stroke-width:1.6;stroke-miterlimit:4;stroke-dasharray:none" />
  </g>
  <g
     filter="url(#pencilTextureFilter)"
     id="g25"
     style="stroke:#ffffff;stroke-width:1.6;stroke-miterlimit:4;stroke-dasharray:none"
     transform="translate(57.570743,57.226273)">
    <path
       d="m 347.608,28.307 c 1.643,-1.08 -4.86,29.38 -5.803,33.929 m 0,0 c 1.229,7.246 2.814,23.889 5.178,26.696 m 0,0 c 2.095,-0.508 15.444,0.263 16.875,2.5 m 0,0 c 2.893,0.436 0.644,4.61 1.429,5.803 m 0,0 c -0.861,1.02 4.499,4.676 3.928,6.608 m 0,0 c 0.106,2.56 -0.939,12.791 0.625,14.553"
       stroke="rgb(0, 0, 0)"
       stroke-width="1"
       fill="none"
       id="path23"
       style="stroke:#ffffff;stroke-width:1.6;stroke-miterlimit:4;stroke-dasharray:none" />
  </g>
  <g
     filter="url(#pencilTextureFilter)"
     id="g29"
     style="stroke:#ffffff"
     transform="translate(57.570743,57.226273)">
    <path
       d="m 382.073,307.86 c 1.822,-1.155 8.366,-12.737 10.803,-14.732 m -10.803,14.732 c 2.086,1.505 7.142,-11.894 10.803,-14.732 m 0,0 c 1.195,-3.077 25.074,-43.964 24.197,-45.982 m -24.197,45.982 c 1.199,-1.035 22.923,-44.494 24.197,-45.982 m 0,0 c 1.492,-4.39 7.005,-33.955 8.482,-36.25 m -8.482,36.25 c 2.387,-1.456 9.23,-34.815 8.482,-36.25 m 0,0 c -0.392,-3.004 4.593,-38.518 5.178,-41.696 m -5.178,41.696 c -0.11,-3.199 6.084,-40.287 5.178,-41.696 m 0,0 c 1.594,-3.32 3.984,-5.398 2.232,-6.875 m -2.232,6.875 c 0.974,-4.272 1.071,-3.492 2.232,-6.875 m 0,0 c 0.708,-1.532 -3.697,-39.699 -3.482,-41.25 m 3.482,41.25 c -1.239,-3.017 -2.139,-35.83 -3.482,-41.25 m 0,0 c -1.585,-2.797 -15.415,-18.828 -15.936,-20.633 m 15.936,20.633 c -1.919,-5.479 -14.813,-18.928 -15.936,-20.633 m 0,0 c -2.978,-2.429 -9.274,-6.743 -9.155,-5.808 m 9.155,5.808 c -1.137,0.059 -7.066,-5.815 -9.155,-5.808 m 0,0 C 402.605,93.05 401.009,77.576 403.256,75.82 m 1.136,18.814 c -2.226,0.705 -4.093,-17.744 -1.136,-18.814 m 0,0 c 1.081,-3.549 14.825,-32.262 15.784,-33.841 M 403.256,75.82 c 1.611,-2.314 14.05,-29.445 15.784,-33.841 m 0,0 c 0.671,-3.054 -0.951,-16.414 -5.051,-22.854 m 5.051,22.854 c -0.029,-4.899 -1.089,-16.037 -5.051,-22.854 m 0,0 c -5.324,-6.854 -7.771,-5.9 -8.397,-7.387 m 8.397,7.387 c -5.519,-4.908 -9.961,-7.889 -8.397,-7.387 m 0,0 c -0.255,-2.588 1.42,0.303 -1.263,-2.399 m 1.263,2.399 c -1.63,-0.767 2.099,-2.204 -1.263,-2.399 m 0,0 c -1.583,-0.467 -5.72,-4.587 -6.376,-3.978 m 6.376,3.978 C 402.013,6.697 400.451,3.35 397.953,5.361 m 0,0 c -1.339,-1.536 -6.195,2.858 -6.629,0.884 m 6.629,-0.884 c 0.668,-1.728 -3.128,0.595 -6.629,0.884 m 0,0 C 388.02,6.716 390.079,2.561 387.851,3.72 m 3.473,2.525 C 389.757,5.026 387.953,2.619 387.851,3.72 m 0,0 C 387.393,2.622 382.6,5.028 381.348,3.152 m 6.503,0.568 c -0.519,1.786 -2.52,1.485 -6.503,-0.568 m 0,0 C 377.983,4.3 377.079,2.546 377.623,1.636 m 3.725,1.516 c -0.584,0.662 -4.14,-1.169 -3.725,-1.516 m 0,0 c -0.964,-0.079 -3.243,4.126 -6.881,2.336 m 6.881,-2.336 c 0.306,2.114 -6.344,2.437 -6.881,2.336 m 0,0 C 366.503,2.41 367.813,0.525 363.923,0.5 m 6.819,3.472 c -0.664,0.581 -4.674,-4.533 -6.819,-3.472 m 0,0 c -2.023,-1.265 -2.351,3.566 -5.745,1.894 M 363.923,0.5 c -0.112,0.566 -5.712,4.179 -5.745,1.894 m 0,0 c -3.43,-0.709 -4.487,-0.95 -7.576,-0.568 m 7.576,0.568 c -0.164,-1.936 -6.125,-0.936 -7.576,-0.568 m 0,0 c -3.278,1.07 -1.353,3.687 -2.652,4.356 m 2.652,-4.356 c -3.409,-1.736 -2.281,3.772 -2.652,4.356 m 0,0 c -1.544,-1.184 -4.758,3.897 -7.134,6.661 m 7.134,-6.661 c -1.996,2.91 -7.669,5.105 -7.134,6.661 m 0,0 c -1.635,0.82 -3.152,4.497 -2.399,5.303 m 2.399,-5.303 c 0.772,-0.635 -1.359,2.849 -2.399,5.303 m 0,0 c -2.013,-0.65 -4.036,0.787 -3.315,2.841 m 3.315,-2.841 c -1.713,1.869 -2.236,2.34 -3.315,2.841 m 0,0 c -0.272,0.988 0.959,5.133 -0.41,3.694 m 0.41,-3.694 c -1.554,2.883 0.159,4.432 -0.41,3.694 m 0,0 c 0.204,1.043 -2.489,4.523 -2.147,4.324 m 2.147,-4.324 c 1.267,-0.879 -0.472,1.272 -2.147,4.324 m 0,0 c 0.233,-0.652 4.891,2.469 5.177,4.641 m -5.177,-4.641 c 1.605,2.533 4.2,3.107 5.177,4.641 m 0,0 c 3.153,1.087 4.824,0.189 4.735,-0.695 m -4.735,0.695 c 2.401,-1.674 3.006,1.742 4.735,-0.695 m 0,0 c 2.077,-1.32 6.695,-8.654 10.733,-7.955 m -10.733,7.955 c -0.509,-0.925 6.289,-8.492 10.733,-7.955 m 0,0 c 2.132,-0.998 9.318,-1.172 12.059,-0.884 m -12.059,0.884 c 4.953,-0.681 12.26,-1.247 12.059,-0.884 m 0,0 c 0.502,1.91 0.628,2.281 1.2,5.682 m -1.2,-5.682 c 2.376,-0.654 -0.33,3.91 1.2,5.682 m 0,0 c 0.288,2.275 14.047,5.086 15.266,7.709 m -15.266,-7.709 c -0.058,0.93 11.64,8.532 15.266,7.709 m 0,0 c 3.992,1.401 14.46,3.068 18.572,6.34 m -18.572,-6.34 c 4.131,-0.129 16.583,3.884 18.572,6.34 m 0,0 c 0.503,0.896 4.893,8.778 3.661,11.518 m -3.661,-11.518 c 0.096,1.795 6.251,9.237 3.661,11.518 m 0,0 c -0.553,3.312 -4.902,9.998 -3.393,10.803 m 3.393,-10.803 c -1.426,3.145 -5.435,8.97 -3.393,10.803 m 0,0 c -1.247,0.091 4.327,5.581 4.732,4.554 m -4.732,-4.554 c 1.842,0.307 4.577,3.548 4.732,4.554"
       stroke="rgb(0, 0, 0)"
       stroke-width="1"
       fill="none"
       id="path27"
       style="stroke:#ffffff" />
  </g>
  <g
     filter="url(#pencilTextureFilter)"
     id="g33"
     style="stroke:#ffffff;stroke-width:1.6;stroke-miterlimit:4;stroke-dasharray:none"
     transform="translate(57.570743,57.226273)">
    <path
       d="m 369.573,113.307 c -0.015,0.973 -7.024,5.196 -6.786,4.107 m 6.786,-4.107 c 0.986,0.492 -6.847,3.299 -6.786,4.107 m 0,0 c 0.05,-0.802 -6.786,2.099 -7.411,2.098 m 7.411,-2.098 c -3.077,-1.353 -5.437,3.524 -7.411,2.098 m 0,0 c -3.094,1.395 -4.638,5.101 -6.786,7.054 m 6.786,-7.054 c 0.252,-1.583 -6.012,5.062 -6.786,7.054 m 0,0 c 0.536,0.718 -8.423,13.906 -8.571,22.455 m 8.571,-22.455 c 1.351,-0.601 -5.698,13.614 -8.571,22.455 m 0,0 c -3.612,6.644 -5.782,30.947 -6.071,36.25 m 6.071,-36.25 c -4.015,4.667 -4.493,31.23 -6.071,36.25 m 0,0 c -0.696,6.554 -4.232,43.312 -2.768,44.732 m 2.768,-44.732 c -0.03,7.711 -1.79,42.817 -2.768,44.732 m 0,0 c -2.052,0.774 -3.395,4.56 -3.125,7.232 m 3.125,-7.232 c -0.073,4.285 -2.427,7.678 -3.125,7.232 m 0,0 c 0.849,3.505 13.096,6.508 14.732,8.215 m -14.732,-8.215 c 0.252,2.016 13.44,8.233 14.732,8.215 m 0,0 c 1.222,1.573 10.9,7.127 11.696,7.053 m -11.696,-7.053 c 0.121,1.095 11.805,8.801 11.696,7.053"
       stroke="rgb(0, 0, 0)"
       stroke-width="1"
       fill="none"
       id="path31"
       style="stroke:#ffffff;stroke-width:1.6;stroke-miterlimit:4;stroke-dasharray:none" />
  </g>
  <g
     filter="url(#pencilTextureFilter)"
     id="g37"
     style="stroke:#ffffff;stroke-width:1.6;stroke-miterlimit:4;stroke-dasharray:none"
     transform="translate(57.570743,57.226273)">
    <path
       d="m 362.661,117.488 c 0.638,0.393 -7.643,9.937 -10.733,10.039 m 0,0 c -0.33,3.583 -4.8,8.56 -6.693,6.818"
       stroke="rgb(0, 0, 0)"
       stroke-width="1"
       fill="none"
       id="path35"
       style="stroke:#ffffff;stroke-width:1.6;stroke-miterlimit:4;stroke-dasharray:none" />
  </g>
  <g
     filter="url(#pencilTextureFilter)"
     id="g41"
     style="stroke:#ffffff;stroke-width:1.6;stroke-miterlimit:4;stroke-dasharray:none"
     transform="translate(57.570743,57.226273)">
    <path
       d="m 369.668,115.657 c 0.947,1.426 -3.384,3.926 -4.324,4.294 m 0,0 c -0.483,1.474 -1.716,4.625 -3.283,6.66 m 0,0 c -0.019,1.818 -1.396,2.016 0.03,2.052 m 0,0 c -1.096,1.053 10.089,-6.031 10.67,-7.134 m 0,0 c 2.903,-0.492 16.202,-12.248 15.405,-11.175 m 0,0 c 0.767,-1.189 10.342,-7.798 16.405,-9.726 m 0,0 c 2.259,0.555 8.98,1.512 9.777,0.67"
       stroke="rgb(0, 0, 0)"
       stroke-width="1"
       fill="none"
       id="path39"
       style="stroke:#ffffff;stroke-width:1.6;stroke-miterlimit:4;stroke-dasharray:none" />
  </g>
  <g
     filter="url(#pencilTextureFilter)"
     id="g45"
     style="stroke:#ffffff;stroke-width:1.6;stroke-miterlimit:4;stroke-dasharray:none"
     transform="translate(57.570743,57.226273)">
    <path
       d="m 367.017,169.827 c 0.214,-1.505 -2.836,-7.419 -4.798,-8.523 m 4.798,8.523 c 1.048,1.61 -5.171,-7.829 -4.798,-8.523 m 0,0 c -2.663,-3.493 -0.628,-5.081 -2.463,-9.976 m 2.463,9.976 c -2.65,-1.878 -1.406,-8.409 -2.463,-9.976 m 0,0 c -1.726,-2.564 2.359,-7.33 2.336,-10.266 m -2.336,10.266 c -0.688,-5.227 3.314,-6.536 2.336,-10.266 m 0,0 c 0.499,-3.201 9.832,-13.217 10.796,-14.9 m -10.796,14.9 c -0.338,-2.385 9.299,-11.557 10.796,-14.9 m 0,0 c 6.84,-6.878 10.701,-9.909 16.983,-12.714 m -16.983,12.714 c 3.847,-3.755 10.337,-11.709 16.983,-12.714 m 0,0 c 1.169,0.215 12.785,-7.169 19.383,-6.251 m -19.383,6.251 c -1.557,-0.478 11.651,-7.018 19.383,-6.251 m 0,0 c -1.885,1.103 9.255,0.162 11.553,5.682 m -11.553,-5.682 c -0.291,-1.315 10.098,-0.977 11.553,5.682 m 0,0 c 5.383,5.138 8.82,9.523 7.955,12.943 m -7.955,-12.943 c 2.404,2.887 7.923,7.701 7.955,12.943 m 0,0 c 1.657,3.419 1.756,23.097 1.894,23.991 m -1.894,-23.991 c -0.766,5.378 0.187,20.194 1.894,23.991 m 0,0 c 0.282,1.884 1.477,13.101 0.442,14.205 m -0.442,-14.205 c -1.421,2.358 3.237,13.682 0.442,14.205 m 0,0 c -2.556,1.848 -5.913,7.832 -7.955,11.112 m 7.955,-11.112 c 0.976,0.687 -8.571,9.07 -7.955,11.112 m 0,0 c -2.107,1.273 -7.597,6.094 -9.344,7.892 m 9.344,-7.892 c -1.083,1.232 -9.275,6.256 -9.344,7.892"
       stroke="rgb(0, 0, 0)"
       stroke-width="1"
       fill="none"
       id="path43"
       style="stroke:#ffffff;stroke-width:1.6;stroke-miterlimit:4;stroke-dasharray:none" />
  </g>
  <g
     filter="url(#pencilTextureFilter)"
     id="g49"
     style="stroke:#ffffff;stroke-width:1.6;stroke-miterlimit:4;stroke-dasharray:none"
     transform="translate(57.570743,57.226273)">
    <path
       d="m 362.564,151.789 c -1.124,1.608 3.5,16.507 4.453,18.038 m -4.453,-18.038 c 0.263,-0.884 1.862,17.007 4.453,18.038 m 0,0 c 1.624,2.585 0.964,18.935 1.01,22.413 m -1.01,-22.413 c 2.12,3.968 3.028,21.03 1.01,22.413 m 0,0 c -1.438,1.687 0.77,26.068 -1.389,27.4 m 1.389,-27.4 c -0.722,1.871 0.745,26.451 -1.389,27.4 m 0,0 c -0.319,3.645 -11.167,23.887 -12.155,32.863 m 12.155,-32.863 c -1.127,2.652 -10.175,27.466 -12.155,32.863 m 0,0 c 0.882,8.817 1.345,37.226 2.559,40.878 m -2.559,-40.878 c 1.601,7.44 3.469,38.2 2.559,40.878 m 0,0 c -0.825,2.527 -2.298,25.985 -2.514,27.872 m 2.514,-27.872 c -0.692,1.797 -3.092,24.486 -2.514,27.872 m 0,0 c -1.002,2.669 0.161,2.91 -2.321,5.313 m 2.321,-5.313 c 1.286,0.549 -2.877,5.793 -2.321,5.313 m 0,0 c -2.23,1.129 -2.956,0.423 -5.625,0.133 m 5.625,-0.133 c 1.08,-1.461 -2.199,0.682 -5.625,0.133 m 0,0 c -3.068,0.078 -6.532,-1.234 -7.768,-2.723 m 7.768,2.723 c -2.426,-1.048 -7.652,-0.716 -7.768,-2.723 m 0,0 c -2.221,-0.946 -12.487,0.038 -12.545,0.357 m 12.545,-0.357 c -3.676,-1.487 -12.61,0.171 -12.545,0.357 m 0,0 c -1.206,1.642 -1.856,1.717 -2.054,2.054 m 2.054,-2.054 c -2.299,1.336 -1.499,-0.576 -2.054,2.054 m 0,0 c -1.177,-0.058 2.996,2.857 1.027,3.125 m -1.027,-3.125 c 0.924,2.168 0.307,0.521 1.027,3.125 m 0,0 c 0.12,-1.372 -0.534,3.056 0.045,3.661 m -0.045,-3.661 c -2.008,0.178 -2.076,3.103 0.045,3.661"
       stroke="rgb(0, 0, 0)"
       stroke-width="1"
       fill="none"
       id="path47"
       style="stroke:#ffffff;stroke-width:1.6;stroke-miterlimit:4;stroke-dasharray:none" />
  </g>
  <g
     filter="url(#pencilTextureFilter)"
     id="g53"
     style="stroke:#ffffff;stroke-width:1.6;stroke-miterlimit:4;stroke-dasharray:none"
     transform="translate(57.570743,57.226273)">
    <path
       d="m 330.912,332.905 c -1.411,-1.115 -0.907,-3.158 0.089,-1.384 m 0,0 c 0.803,1.534 3.025,0.718 3.036,-0.178 m 0,0 c -1.495,2.248 0.876,-0.115 -1.027,1.473 m 0,0 c -1.49,1.381 -5.233,1.378 -7.723,0.357 m 0,0 c -0.793,0.645 -11.903,-2.219 -10.938,-1.562 m 0,0 c -2.414,0.091 -5.232,7.635 -6.16,10 m 0,0 c -2.549,0.535 -2.181,-0.656 -4.375,1.428 m 0,0 c -0.052,-1.576 -0.543,-0.115 -1.34,2.545 m 0,0 c 0.452,1.33 2.813,2.844 1.518,1.696"
       stroke="rgb(0, 0, 0)"
       stroke-width="1"
       fill="none"
       id="path51"
       style="stroke:#ffffff;stroke-width:1.6;stroke-miterlimit:4;stroke-dasharray:none" />
  </g>
  <g
     filter="url(#pencilTextureFilter)"
     id="g57"
     style="stroke:#ffffff;stroke-width:1.6;stroke-miterlimit:4;stroke-dasharray:none"
     transform="translate(57.570743,57.226273)">
    <path
       d="m 333.099,337.325 c 1.8,-1.343 -8.606,0.617 -8.839,-0.536 m 0,0 c -0.934,-0.828 -4.284,-1.581 -7.232,-0.581 m 0,0 c -2.213,0.165 -13.879,10.327 -13.036,11.072 m 0,0 c 0.431,0.084 -5.549,2.878 -4.241,1.875 m 0,0 c 0.536,-1.242 -2.03,2.098 0.089,2.768 m 0,0 c 2.009,-1.315 5.128,2.051 4.599,0.625 m 0,0 c 1.098,1.623 8.976,-2.712 8.973,-4.197 m 0,0 c 2.086,-2.853 3.04,-4.503 4.375,-4.687 m 0,0 c 0.221,-0.651 0.905,-1.718 2.589,-0.045"
       stroke="rgb(0, 0, 0)"
       stroke-width="1"
       fill="none"
       id="path55"
       style="stroke:#ffffff;stroke-width:1.6;stroke-miterlimit:4;stroke-dasharray:none" />
  </g>
  <g
     filter="url(#pencilTextureFilter)"
     id="g61"
     style="stroke:#ffffff;stroke-width:1.6;stroke-miterlimit:4;stroke-dasharray:none"
     transform="translate(57.570743,57.226273)">
    <path
       d="m 331.715,339.735 c -0.764,0.367 -6.495,0.837 -6.294,0.179 m 6.294,-0.179 c -0.845,-1.961 -7.065,0.525 -6.294,0.179 m 0,0 c -1.365,0.447 -3.372,4.213 -5.045,3.705 m 5.045,-3.705 c -0.326,0.383 -2.782,3.352 -5.045,3.705 m 0,0 c 1.884,-0.903 -4.772,7.063 -6.919,6.384 m 6.919,-6.384 c -1.196,1.075 -4.73,5.439 -6.919,6.384 m 0,0 c -1.745,-1.197 -7.217,1.719 -5.581,2.857 m 5.581,-2.857 c -1.367,2.373 -3.325,1.781 -5.581,2.857 m 0,0 c -1.775,-0.04 -1.008,2.718 -0.223,2.009 m 0.223,-2.009 c -1.742,-1.325 0.203,2.264 -0.223,2.009 m 0,0 c 0.123,-0.297 3.794,-0.249 4.821,1.206 m -4.821,-1.206 c -0.71,-1.225 5.73,2.439 4.821,1.206 m 0,0 c 1.588,0.558 7.495,-2.052 7.366,-3.527 m -7.366,3.527 c -1.433,-2.366 7.797,-3.754 7.366,-3.527 m 0,0 c 0.028,0.898 1.951,-2.64 5,-4.464 m -5,4.464 c -0.71,-1.413 3.157,-4.16 5,-4.464 m 0,0 c 0.571,-0.415 3.811,-1.264 8.393,-2.5 m -8.393,2.5 c 1.781,1.739 7.028,-1.822 8.393,-2.5 m 0,0 c 3.266,0.01 5.463,-0.38 5.179,1.16 m -5.179,-1.16 c 2.147,-1.862 4.572,1.795 5.179,1.16 m 0,0 c -0.955,0.885 -2.33,1.024 -2.5,1.518 m 2.5,-1.518 c -1.842,0.921 -3.758,1.022 -2.5,1.518 m 0,0 c -1.339,-0.036 -3.592,1.196 -3.393,2.098 m 3.393,-2.098 c -0.428,-1.01 -2.157,0.745 -3.393,2.098 m 0,0 c -0.492,2.422 -9.992,2.917 -10.223,2.768 m 10.223,-2.768 c -3.341,2.518 -8.197,3.047 -10.223,2.768 m 0,0 c -2.393,-1.025 -2.582,3.807 -0.447,3.081 m 0.447,-3.081 c 0.479,-1.391 -0.819,3.268 -0.447,3.081 m 0,0 c 0.498,1.403 5.814,2.044 6.965,0.401 m -6.965,-0.401 c 3.209,2.842 6.545,2.052 6.965,0.401 m 0,0 c 1.201,-0.51 9.655,-0.144 8.839,-2.41 m -8.839,2.41 c 0.841,-2.21 8.799,-0.379 8.839,-2.41 m 0,0 c -1.006,1.338 0.114,-2.795 3.884,-1.741 m -3.884,1.741 c -0.293,-2.425 1.138,-1.447 3.884,-1.741 m 0,0 c 2.29,0.568 12.346,0.054 13.295,-0.521 m -13.295,0.521 c 2.794,-1.987 11.899,-0.656 13.295,-0.521 m 0,0 c 2.103,0.254 10.37,-2.68 13.542,-4.482 m -13.542,4.482 c 2.34,-1.333 9.883,-3.004 13.542,-4.482 m 0,0 c 1.656,0.321 5.372,-10.916 4.681,-13.346 m -4.681,13.346 c 3.384,-1.41 5.961,-11.534 4.681,-13.346 m 0,0 c 0.398,-0.462 6.625,-19.895 9.017,-26.249 m -9.017,26.249 c 0.69,-0.47 6.006,-22.965 9.017,-26.249 m 0,0 c 2.463,-3.849 7.136,-22.076 7.858,-23.84 m -7.858,23.84 c 0.275,-2.311 7.036,-22.285 7.858,-23.84 m 0,0 c 1.834,-2.773 1.475,-14.364 1.607,-18.66 m -1.607,18.66 c 0.298,-1.58 2.476,-14.457 1.607,-18.66 m 0,0 c 1,-3.865 3.335,-26.111 3.214,-28.75 m -3.214,28.75 c 1.35,-2.66 5.156,-26.098 3.214,-28.75 m 0,0 c 1.717,-1.316 -1.31,-5.751 0.179,-7.768 m -0.179,7.768 c 0.191,-2.908 -0.392,-6.896 0.179,-7.768 m 0,0 c 1.716,-4.284 9.223,-21.238 11.696,-22.232 m -11.696,22.232 c -0.117,-1.388 10.571,-17.519 11.696,-22.232 m 0,0 c 1.635,-1.815 2.152,-10.525 2.857,-11.965 m -2.857,11.965 c -0.601,-1.194 1.43,-11.638 2.857,-11.965 m 0,0 c 0.88,-2.085 3.824,-5.669 4.316,-11.624 m -4.316,11.624 c 2.525,-0.982 2.983,-8.05 4.316,-11.624 m 0,0 c -0.316,-4.515 5.098,-28.735 4.988,-28.284 m -4.988,28.284 c 2.406,-2.182 3.565,-27.701 4.988,-28.284"
       stroke="rgb(0, 0, 0)"
       stroke-width="1"
       fill="none"
       id="path59"
       style="stroke:#ffffff;stroke-width:1.6;stroke-miterlimit:4;stroke-dasharray:none" />
  </g>
  <g
     filter="url(#pencilTextureFilter)"
     id="g65"
     style="stroke:#ffffff;stroke-width:1.6;stroke-miterlimit:4;stroke-dasharray:none"
     transform="translate(57.570743,57.226273)">
    <path
       d="m 330.146,232.772 c 0.08,0.743 -38.428,0.409 -44.699,-1.768 m 0,0 c -6.433,1.443 -36.824,0.76 -38.891,1.894 m 0,0 c -1.321,0.638 -10.403,-3.421 -15.405,-2.525 m 0,0 c -5.126,1.345 -18.381,-0.858 -23.359,1.262 m 0,0 c -5.812,2.003 -71.317,3.965 -74.291,4.083 m 0,0 c -6.365,-1.4 -42.081,-3.023 -45.625,-1.697 m 0,0 c -3.729,-1.896 -21.026,-3.276 -24.285,-5.536 m 0,0 c -3.514,-1.987 -20.619,-5.479 -23.304,-4.464 m 0,0 c -1.599,-2.877 -14.877,-8.325 -18.214,-9.375 m 0,0 c -0.293,-0.699 -8.793,-3.444 -8.75,-2.678 m 0,0 c -2.277,-1.78 -1.242,2.598 -2.679,0.714"
       stroke="rgb(0, 0, 0)"
       stroke-width="1"
       fill="none"
       id="path63"
       style="stroke:#ffffff;stroke-width:1.6;stroke-miterlimit:4;stroke-dasharray:none" />
  </g>
  <g
     filter="url(#pencilTextureFilter)"
     id="g69"
     style="stroke:#ffffff"
     transform="translate(57.570743,57.226273)">
    <path
       d="m 313.412,243.575 c 1.547,1.419 -24.385,-1.338 -30.089,-0.893 m 0,0 c -6.303,-0.732 -43.898,0.359 -45.984,1.959 m 0,0 c -4.374,0.056 -5.94,-1.768 -11.365,-3.157 m 0,0 c -3.686,-1.249 -105.785,4.146 -112.758,4.672 m 0,0 c -4.247,0.205 -36.434,-6.136 -38.638,-6.439 m 0,0 c -5.525,0.257 -30.357,-9.965 -34.787,-12.754 m 0,0 C 35.29,225.146 14.075,214.861 10.644,212.682 m 0,0 c -2.8,-3.933 -7.964,-4.681 -10.089,1.428 m 0,0 c 0.953,0.88 3.502,9.351 3.661,11.786 m 0,0 c 3.342,2.166 7.479,15.266 11.696,18.214 m 0,0 c 4.676,2.133 23.608,16.244 23.572,19.018 m 0,0 c 3.427,2.729 8.048,13.143 10.446,13.839 m 0,0 c 1.445,0.496 11.657,4.572 12.589,4.197 m 0,0 c 1.979,-0.477 7.325,-5.735 11.161,-5.982 m 0,0 c 4.28,-1.068 55.796,13.607 66.179,13.022 m 0,0 c 10.567,-0.7 75.476,7.716 79.044,7.829 m 0,0 c 2.849,0.681 91.315,20.735 104.046,20.708 m 0,0 c 11.866,-1.011 31.254,0.026 31.946,1.641"
       stroke="rgb(0, 0, 0)"
       stroke-width="1"
       fill="none"
       id="path67"
       style="stroke:#ffffff" />
  </g>
  <g
     filter="url(#pencilTextureFilter)"
     id="g73"
     style="stroke:#ffffff;stroke-width:1.6;stroke-miterlimit:4;stroke-dasharray:none"
     transform="translate(57.570743,57.226273)">
    <path
       d="m 70.734,275.717 c 0.691,0.481 -5.133,-13.193 -3.572,-18.214 m 0,0 c -0.321,-7.475 5.103,-18.124 6.964,-17.857"
       stroke="rgb(0, 0, 0)"
       stroke-width="1"
       fill="none"
       id="path71"
       style="stroke:#ffffff;stroke-width:1.6;stroke-miterlimit:4;stroke-dasharray:none" />
  </g>
  <g
     filter="url(#pencilTextureFilter)"
     id="g77"
     style="stroke:#ffffff;stroke-width:1.6;stroke-miterlimit:4;stroke-dasharray:none"
     transform="translate(57.570743,57.226273)">
    <path
       d="m 81.634,233.402 c 0.32,0.337 -0.954,3.501 -2.999,6.496"
       stroke="rgb(0, 0, 0)"
       stroke-width="1"
       fill="none"
       id="path75"
       style="stroke:#ffffff;stroke-width:1.6;stroke-miterlimit:4;stroke-dasharray:none" />
  </g>
  <g
     filter="url(#pencilTextureFilter)"
     id="g81"
     style="stroke:#ffffff;stroke-width:1.6;stroke-miterlimit:4;stroke-dasharray:none"
     transform="translate(57.570743,57.226273)">
    <path
       d="m 385.093,296.577 c 1.075,0.968 2.558,2.169 3.181,2.675"
       stroke="rgb(0, 0, 0)"
       stroke-width="1"
       fill="none"
       id="path79"
       style="stroke:#ffffff;stroke-width:1.6;stroke-miterlimit:4;stroke-dasharray:none" />
  </g>
</svg>
