<?xml version="1.0" encoding="UTF-8" standalone="no"?>
<svg
   width="444.54239"
   height="481.0784"
   stroke-linecap="round"
   version="1.1"
   id="svg4404"
   sodipodi:docname="step_box.svg"
   inkscape:version="1.1.2 (0a00cf5339, 2022-02-04)"
   xmlns:inkscape="http://www.inkscape.org/namespaces/inkscape"
   xmlns:sodipodi="http://sodipodi.sourceforge.net/DTD/sodipodi-0.dtd"
   xmlns="http://www.w3.org/2000/svg"
   xmlns:svg="http://www.w3.org/2000/svg">
  <sodipodi:namedview
     id="namedview4406"
     pagecolor="#ffffff"
     bordercolor="#111111"
     borderopacity="1"
     inkscape:pageshadow="0"
     inkscape:pageopacity="0"
     inkscape:pagecheckerboard="1"
     showgrid="false"
     inkscape:zoom="1.3599998"
     inkscape:cx="3.3088241"
     inkscape:cy="271.69122"
     inkscape:window-width="2490"
     inkscape:window-height="1376"
     inkscape:window-x="70"
     inkscape:window-y="27"
     inkscape:window-maximized="1"
     inkscape:current-layer="svg4404" />
  <defs
     id="defs4326">
    <filter
       id="pencilTextureFilter"
       x="-0.4468614"
       y="-0.44592406"
       width="1.8940234"
       height="1.8926623"
       filterUnits="objectBoundingBox">
      <feTurbulence
         type="fractalNoise"
         baseFrequency="2"
         numOctaves="5"
         stitchTiles="stitch"
         result="f1"
         id="feTurbulence4319" />
      <feColorMatrix
         type="matrix"
         values="0 0 0 0 0, 0 0 0 0 0, 0 0 0 0 0, 0 0 0 -1.5 1.5"
         result="f2"
         id="feColorMatrix4321" />
      <feComposite
         operator="in"
         in="SourceGraphic"
         in2="f2"
         result="f3"
         id="feComposite4323" />
    </filter>
  </defs>
  <g
     id="g4618"
     transform="translate(69.125857,63.395212)"
     style="stroke-width:2;stroke-miterlimit:4;stroke-dasharray:none">
    <g
       filter="url(#pencilTextureFilter)"
       id="g4332"
       style="stroke:#ffffff;stroke-width:2;stroke-miterlimit:4;stroke-dasharray:none">
      <path
         d="m 121.815,293.474 c 41.323,0.806 82.725,-3.691 113.874,-9.125 m -113.874,9.125 c 41.064,-6 82.765,-9.692 113.874,-9.125 m 0,0 c 14.111,4.5 28.001,10.564 37.375,16.25 m -37.375,-16.25 c 7.898,1.605 15.312,4.52 37.375,16.25 m 0,0 c 0.236,29.217 2.248,55.285 0.5,73.5 m -0.5,-73.5 c -4.822,20.283 -3.975,39.273 0.5,73.5 m 0,0 c 0.32,-1.783 -117.545,13.419 -118.749,12.75 m 118.749,-12.75 c -1.996,0.151 -116.199,11.754 -118.749,12.75 m 0,0 c -2.564,-1.624 -31.201,-24.563 -33,-24 m 33,24 c -0.656,-1.439 -31.254,-22.572 -33,-24 m 0,0 c -2.693,-21.606 -0.764,-47.117 0,-69.375 m 0,69.375 c -4.143,-23.663 -3.4,-45.297 0,-69.375"
         stroke="rgb(0, 0, 0)"
         stroke-width="1"
         fill="none"
         id="path4330"
         style="stroke:#ffffff;stroke-width:2;stroke-miterlimit:4;stroke-dasharray:none" />
    </g>
    <g
       filter="url(#pencilTextureFilter)"
       id="g4336"
       style="stroke:#ffffff;stroke-width:2;stroke-miterlimit:4;stroke-dasharray:none">
      <path
         d="m 122.27,292.276 c 7.157,2.571 15.519,6.916 34.854,20.737 m -1.504,-3.579 c 25.623,-7.39 48.901,-7.207 116.031,-7.335"
         stroke="rgb(0, 0, 0)"
         stroke-width="1"
         fill="none"
         id="path4334"
         style="stroke:#ffffff;stroke-width:2;stroke-miterlimit:4;stroke-dasharray:none" />
    </g>
    <g
       filter="url(#pencilTextureFilter)"
       id="g4340"
       style="stroke:#ffffff;stroke-width:2;stroke-miterlimit:4;stroke-dasharray:none">
      <path
         d="m 156.893,311.673 c 1.104,20.887 -1.082,40.072 -1.933,74.324"
         stroke="rgb(0, 0, 0)"
         stroke-width="1"
         fill="none"
         id="path4338"
         style="stroke:#ffffff;stroke-width:2;stroke-miterlimit:4;stroke-dasharray:none" />
    </g>
    <g
       filter="url(#pencilTextureFilter)"
       id="g4346"
       style="stroke:#ffffff;stroke-width:2;stroke-miterlimit:4;stroke-dasharray:none">
      <path
         d=""
         stroke="rgb(255, 255, 255)"
         stroke-width="1.211"
         fill="none"
         id="path4342"
         style="stroke:#ffffff;stroke-width:2;stroke-miterlimit:4;stroke-dasharray:none" />
      <path
         d="m 175.506,96.317 c -0.665,0.302 5.492,0.745 5.054,-1.002 m -5.054,1.002 c -0.156,-0.276 5.716,0.147 5.054,-1.002 m 0,0 c 1.758,-1.029 1.279,0.727 0.167,0.496 m -0.167,-0.496 c -2.151,0.399 1.944,1.244 0.167,0.496 m 0,0 c 0.89,-0.314 0.338,-0.717 0.138,0.54 m -0.138,-0.54 c 1.979,0.145 -1.357,1.591 0.138,0.54 m 0,0 c 0.002,0.013 0.003,0.016 0.009,0.041 m -0.009,-0.041 c 0.003,0.015 0.004,0.028 0.009,0.041 m 0,0 c -0.211,0.002 -0.307,-0.007 -0.458,0.011 m 0.458,-0.011 c -0.121,0.027 -0.288,0.01 -0.458,0.011 m 0,0 c 0.38,-0.159 -6.679,1.878 -5.66,0.101 m 5.66,-0.101 c 0.441,0.805 -5.499,-2.122 -5.66,0.101 m 0,0 c -0.054,0.008 -0.105,0.017 -0.172,-0.002 m 0.172,0.002 c -0.06,-0.003 -0.095,0.002 -0.172,-0.002 m 0,0 c 0.317,-0.175 0.727,-0.134 0.922,-0.186 m -0.922,0.186 c 0.316,-0.06 0.536,-0.103 0.922,-0.186 m 0,0 c 0,0 0,0 0,10e-4 m 0,-10e-4 c 0,0 0,0 0,10e-4"
         stroke="rgb(255, 255, 255)"
         stroke-width="0.031"
         fill="none"
         id="path4344"
         style="stroke:#ffffff;stroke-width:2;stroke-miterlimit:4;stroke-dasharray:none" />
    </g>
    <path
       d="m 220.503,236.262 c -1.075,-0.936 -2.39,-11.555 -5.262,-16.015 m 5.262,16.015 c -1.484,-0.987 -4.773,-10.597 -5.262,-16.015 m 0,0 c 0.084,-2.903 -7.767,-15.207 -8.486,-18.385 m 8.486,18.385 c 0.879,-5.738 -5.601,-14.958 -8.486,-18.385 m 0,0 c -3.047,-3.038 2.449,-4.326 5.48,-4.596 m -5.48,4.596 c -1.308,0.166 3.327,-2.687 5.48,-4.596 m 0,0 c 1.499,-2.364 23.296,-0.295 25.279,0.707 m -25.279,-0.707 c 4.475,-1.649 23.52,0.679 25.279,0.707 m 0,0 c 1.654,-1.085 -9.608,23.922 -14.319,30.406 m 14.319,-30.406 c 0.716,-1.489 -11.779,23.392 -14.319,30.406 m 0,0 c -2.092,8.556 -9.293,25.289 -8.662,30.582 m 8.662,-30.582 c -5.456,9.17 -9.172,23.71 -8.662,30.582 m 0,0 c 1.143,4.877 -7.751,15.349 -8.308,23.334 m 8.308,-23.334 c -0.776,3.765 -7.903,18.786 -8.308,23.334 m 0,0 c -3.751,4.196 -12.146,26.811 -11.844,31.82 m 11.844,-31.82 c -1.083,4.21 -8.374,28.517 -11.844,31.82 m 0,0 c -1.315,5.873 -9.837,11.984 -10.076,13.789 m 10.076,-13.789 c -0.649,3.398 -11.743,15.14 -10.076,13.789 m 0,0 c -1.794,-1.812 1.176,2.537 3.535,3.535 m -3.535,-3.535 c -1.488,1.177 0.395,-0.437 3.535,3.535 m 0,0 c 0.13,2.974 0.284,6.007 -0.707,10.43 m 0.707,-10.43 c 0.004,0.39 0.692,4.776 -0.707,10.43 m 0,0 c 1.201,2.015 7.498,12.72 8.309,12.021 m -8.309,-12.021 c -0.87,2.605 8.571,10.324 8.309,12.021 m 0,0 c -1.516,0.188 13.509,-21.922 15.379,-26.34 m -15.379,26.34 c -1.194,-2.267 13.899,-20.412 15.379,-26.34 m 0,0 c 0.591,-4.216 21.619,-33.682 24.749,-40.482 m -24.749,40.482 c 1.816,-3.432 22.878,-33.564 24.749,-40.482 m 0,0 c 2.515,-7.83 8.465,-32.055 10.253,-37.123 m -10.253,37.123 c 3.794,-8.069 9.856,-32.38 10.253,-37.123 m 0,0 c 1.765,-3.763 6.948,-8.855 7.424,-7.955 m -7.424,7.955 c 0.555,-3.364 4.932,-9.103 7.424,-7.955 m 0,0 c 1.392,-2.028 11.912,-13.962 13.435,-13.965 m -13.435,13.965 c 1.347,0.277 14.032,-11.47 13.435,-13.965 m 0,0 c -0.134,-0.183 14.137,-23.397 17.678,-25.809 m -17.678,25.809 c 1.735,0.301 14.442,-19.735 17.678,-25.809 m 0,0 c 19.246,-18.726 28.427,-28.499 18.031,-53.564 m -18.031,53.564 c 17.591,-16.022 26.608,-25.7 18.031,-53.564 m 0,0 c -2.376,-5.645 -17.99,-21.393 -19.238,-24.655 m 19.238,24.655 c -3.894,-8.55 -16.81,-21.511 -19.238,-24.655 m 0,0 c -1.138,-4.544 -52.259,-44.9 -57.125,-48 m 57.125,48 c -2.388,-5.465 -53.489,-45.08 -57.125,-48 m 0,0 c -3.393,-1.434 -19.815,-8.898 -22.75,-12.125 m 22.75,12.125 c -3.027,-2.648 -19.343,-8.651 -22.75,-12.125 m 0,0 c -5.943,-0.586 -11.233,-5.309 -13.67,-6.26 m 13.67,6.26 c -2.655,-3.266 -8.071,-5.006 -13.67,-6.26 m 0,0 c -4.92,-0.138 -10.414,-7.861 -9.723,-9.192 m 9.723,9.192 c -2.496,0.003 -8.694,-7.709 -9.723,-9.192 m 0,0 c -1.47,0.444 3.919,-6.967 3.713,-7.601 m -3.713,7.601 c -1.922,-0.145 2.376,-5.356 3.713,-7.601 m 0,0 c 0.418,-4.102 4.181,-14.702 3.889,-16.971 m -3.889,16.971 c 2.203,-3.996 5.008,-15.731 3.889,-16.971 m 0,0 c -1.108,-0.041 -3.89,-7.489 -4.243,-10.783 m 4.243,10.783 c 2.019,-2.031 -2.307,-9.549 -4.243,-10.783 m 0,0 c -0.816,-2.449 -3.171,-4.871 -5.127,-3.536 m 5.127,3.536 c -3.213,-2.363 -6.344,-2.016 -5.127,-3.536 m 0,0 c 0.48,-0.104 9.032,-2.522 9.9,-1.237 m -9.9,1.237 c 1.731,0.74 5.718,0.394 9.9,-1.237 m 0,0 c 4.688,1.561 5.468,8.698 8.662,7.601 m -8.662,-7.601 c 2.24,-1.822 7.617,4.805 8.662,7.601 m 0,0 c 2.16,0.224 4.839,18.128 6.01,19.622 m -6.01,-19.622 c 0.864,-1.17 5.069,18.064 6.01,19.622 m 0,0 c 1.555,3.248 4.808,10.594 4.95,14.85 m -4.95,-14.85 c 1.872,3.125 3.993,12.588 4.95,14.85 m 0,0 c 0.966,3.29 -3.659,9.825 -4.419,11.137 m 4.419,-11.137 c -0.871,1.946 -3.012,9.396 -4.419,11.137 m 0,0 c -1.174,-0.034 5.942,5.403 5.565,5.126 m -5.565,-5.126 c 1.252,2.719 5.31,5.159 5.565,5.126 m 0,0 c 1.699,-1.561 4.676,-4.547 5.395,-8.308 m -5.395,8.308 c 0.784,-1.802 2.285,-6.631 5.395,-8.308 m 0,0 c 0.039,-0.683 0.087,-7.159 -1.945,-8.486 m 1.945,8.486 c 2.891,-1.278 -0.166,-6.825 -1.945,-8.486 m 0,0 c 0.705,-4.874 -0.855,-9.027 -2.828,-12.728 m 2.828,12.728 c 1.353,-1.555 -2.71,-11.504 -2.828,-12.728 m 0,0 c -1.38,-1.76 -1.872,-16.388 -4.419,-17.854 m 4.419,17.854 c -1.717,-5.105 -3.99,-17.445 -4.419,-17.854 m 0,0 c 0.325,-2.884 -5.555,-11.637 -7.072,-14.849 m 7.072,14.849 c 1.371,-1.958 -7.136,-12.47 -7.072,-14.849 m 0,0 c -2.005,-3.08 -8.992,-2.734 -14.495,-3.889 m 14.495,3.889 c -2.75,-1.907 -10.888,-5.432 -14.495,-3.889 m 0,0 c -4.966,-0.068 -9.49,2.656 -12.905,4.242 m 12.905,-4.242 c -4.715,2.075 -13.347,4.001 -12.905,4.242 m 0,0 C 169.662,3.865 162.405,3.595 157.258,3.165 m 13.258,1.591 C 169.75,4.562 164.05,0.729 157.258,3.165 m 0,0 C 151.172,3.303 146,8.872 144.707,9.529 m 12.551,-6.364 c -4.842,3.294 -11.124,5.418 -12.551,6.364 m 0,0 c 1.338,-0.74 -2.503,2.453 -4.685,6.983 m 4.685,-6.983 c -0.452,-0.096 -0.961,1.929 -4.685,6.983 m 0,0 c -1.323,3.48 -5.935,16.016 -3.889,18.208 m 3.889,-18.208 c -3.046,5.711 -2.428,14.3 -3.889,18.208 m 0,0 c -0.05,3.015 4.927,14.911 5.48,20.241 m -5.48,-20.241 c 2.693,3.907 1.916,18.408 5.48,20.241 m 0,0 c 0.302,2.049 1.084,5.409 4.42,7.866 m -4.42,-7.866 c 0.57,3.384 0.482,5.872 4.42,7.866 m 0,0 c 4.762,-0.316 8.032,-4.439 10.518,-1.325 m -10.518,1.325 c 3.058,-0.982 8.473,-1.707 10.518,-1.325 m 0,0 c 2.458,1.336 8.745,4.185 6.364,7.778 m -6.364,-7.778 c 4.74,0.318 8.244,6.662 6.364,7.778 m 0,0 c 0.455,0.917 -10.925,6.959 -26.137,9.342 m 26.137,-9.342 c -1.01,1.301 -12.108,9.121 -26.137,9.342 m 0,0 c -12.751,2.628 -25.585,-6.813 -34.5,-3.75 m 34.5,3.75 c -12.134,1.813 -25.764,-4.488 -34.5,-3.75 m 0,0 c -10.013,1.842 -41.749,6.498 -52.5,7.5 m 52.5,-7.5 c -10.242,1.019 -40.388,6.388 -52.5,7.5 m 0,0 C 38.388,80.97 4.873,74.591 2.528,74.622 m 47.25,7.75 C 38.764,80.79 6.073,75.559 2.528,74.622 m 0,0 c -5.801,1.263 -2.207,6.307 2.25,5.75 m -2.25,-5.75 c -4.269,-0.21 -2.395,6.137 2.25,5.75 m 0,0 c 3.977,-0.915 16.4,3.22 19.5,6 m -19.5,-6 c 1.113,2.095 18.783,2.674 19.5,6 m 0,0 c 1.865,2.84 -8.988,1.516 -10.25,4 m 10.25,-4 c 2.578,3.293 -6.62,2.034 -10.25,4 m 0,0 c -4.244,1.094 -8.826,8.92 0.75,6 m -0.75,-6 c -0.321,-0.447 -5.925,5.76 0.75,6 m 0,0 c 7.425,-0.727 25.286,-2.543 29.25,-2.75 m -29.25,2.75 c 6.177,-3.244 24.982,-4.15 29.25,-2.75 m 0,0 c 3.276,0.702 44.258,7.099 50.5,6 m -50.5,-6 c 4.957,1.308 47.309,7.815 50.5,6 m 0,0 c 6.19,1.222 18.995,-4.414 25.75,-3.25 m -25.75,3.25 c 3.775,0.197 19.969,-3.217 25.75,-3.25 m 0,0 c 7.392,1.056 30.326,2.957 39.25,1.75 m -39.25,-1.75 c 7.61,0.228 34.26,5.764 39.25,1.75 m 0,0 c 6.844,-0.319 34.619,-7.628 33.5,-6.75 m -33.5,6.75 c 6.924,-2.452 33.364,-4.663 33.5,-6.75"
       stroke="#000000"
       stroke-width="1"
       fill="none"
       id="path4348"
       style="stroke:#ffffff;filter:url(#pencilTextureFilter);stroke-width:2;stroke-miterlimit:4;stroke-dasharray:none" />
    <g
       filter="url(#pencilTextureFilter)"
       id="g4354"
       style="stroke:#ffffff;stroke-width:2;stroke-miterlimit:4;stroke-dasharray:none">
      <path
         d="m 171.278,96.14 c 1.037,-1.264 4.146,25.302 12,28.75 m 0,0 c 7.599,5.576 21.161,3.7 24,4.75 m 0,0 c 4.85,1.499 15.859,10.804 20.25,10.75 m 0,0 c 4.471,-1.853 12.727,-2.679 15.75,0.75 m 0,0 c 3.064,4.17 2.789,7.658 -0.75,7.75 m 0,0 c -4.023,1.561 -20.38,5.817 -27.75,9.25 m 0,0 c -8.506,6.354 -37.842,17.337 -37.75,25.75 m 0,0 c -0.992,7.201 7.533,33.227 10.5,39.5 m 0,0 c 5.14,5.958 14.323,19.23 16.75,25.75 m 0,0 c 3.926,6.385 8.317,23.549 9.5,21.969"
         stroke="rgb(0, 0, 0)"
         stroke-width="1"
         fill="none"
         id="path4352"
         style="stroke:#ffffff;stroke-width:2;stroke-miterlimit:4;stroke-dasharray:none" />
    </g>
    <g
       filter="url(#pencilTextureFilter)"
       id="g4358"
       style="stroke:#ffffff;stroke-width:2;stroke-miterlimit:4;stroke-dasharray:none">
      <path
         d="m 209.934,279.859 c 0.33,1.466 -10.909,11.228 -15.844,11.594 m 0,0 c -4.414,3.448 -18.605,3.991 -11.125,8.937 m 0,0 c 7.845,1.763 16.115,2.082 17.938,3"
         stroke="rgb(0, 0, 0)"
         stroke-width="1"
         fill="none"
         id="path4356"
         style="stroke:#ffffff;stroke-width:2;stroke-miterlimit:4;stroke-dasharray:none" />
    </g>
    <g
       filter="url(#pencilTextureFilter)"
       id="g4362"
       style="stroke:#ffffff;stroke-width:2;stroke-miterlimit:4;stroke-dasharray:none">
      <path
         d="m 186.804,328.422 c -0.5,1.006 -2.459,4.434 -7.601,2.652 m 0,0 c -6.076,1.318 -11.844,-3.982 -13.435,-5.392 m 0,0 c -1.246,-1.632 -4.434,-7.376 -9.192,-9.546 m 0,0 c -3.204,1.456 -10.631,-1.546 -9.281,3.447 m 0,0 c -0.358,2.254 3.873,12.559 6.541,18.65 m 0,0 c 6.144,3.416 14.256,10.645 13.876,14.231 m 0,0 c 0.316,1.246 2.812,12.787 6.895,13.788 m 0,0 c 2.409,0.518 9.774,7.987 12.904,7.513 m 0,0 c 1.025,1.56 10.613,-19.964 10.43,-19.357"
         stroke="rgb(0, 0, 0)"
         stroke-width="1"
         fill="none"
         id="path4360"
         style="stroke:#ffffff;stroke-width:2;stroke-miterlimit:4;stroke-dasharray:none" />
    </g>
    <g
       filter="url(#pencilTextureFilter)"
       id="g4366"
       style="stroke:#ffffff;stroke-width:2;stroke-miterlimit:4;stroke-dasharray:none">
      <path
         d="m 244.433,143.691 c 1.693,1.816 11.145,-6.096 17.236,-8.309 m -17.236,8.309 c -1.211,-0.533 11.852,-6.659 17.236,-8.309 m 0,0 c 6.135,-2.523 23.437,-12.691 22.362,-11.932 m -22.362,11.932 c 9.353,-3.4 22.926,-11.219 22.362,-11.932"
         stroke="rgb(0, 0, 0)"
         stroke-width="1"
         fill="none"
         id="path4364"
         style="stroke:#ffffff;stroke-width:2;stroke-miterlimit:4;stroke-dasharray:none" />
    </g>
    <g
       filter="url(#pencilTextureFilter)"
       id="g4370"
       style="stroke:#ffffff;stroke-width:2;stroke-miterlimit:4;stroke-dasharray:none">
      <path
         d="m 214.153,134.015 c 0.91,1.785 14.454,-8.402 19.625,-17.75 m 0,0 c 7.473,-9.776 11.032,-25.888 12.937,-24.968"
         stroke="rgb(0, 0, 0)"
         stroke-width="1"
         fill="none"
         id="path4368"
         style="stroke:#ffffff;stroke-width:2;stroke-miterlimit:4;stroke-dasharray:none" />
    </g>
    <g
       filter="url(#pencilTextureFilter)"
       id="g4374"
       style="stroke:#ffffff;stroke-width:2;stroke-miterlimit:4;stroke-dasharray:none">
      <path
         d="m 199.746,61.328 c -0.913,0.914 -8.647,2.584 -10.843,2.812 m 0,0 c -4.558,3.187 -4.785,9.504 -5.188,7.688"
         stroke="rgb(0, 0, 0)"
         stroke-width="1"
         fill="none"
         id="path4372"
         style="stroke:#ffffff;stroke-width:2;stroke-miterlimit:4;stroke-dasharray:none" />
    </g>
    <g
       filter="url(#pencilTextureFilter)"
       id="g4378"
       style="stroke:#ffffff;stroke-width:2;stroke-miterlimit:4;stroke-dasharray:none">
      <path
         d="m 147.21,76.712 c 11.489,0.666 23.002,-3.971 38.906,-6.259"
         stroke="rgb(0, 0, 0)"
         stroke-width="1"
         fill="none"
         id="path4376"
         style="stroke:#ffffff;stroke-width:2;stroke-miterlimit:4;stroke-dasharray:none" />
    </g>
    <g
       filter="url(#pencilTextureFilter)"
       id="g4382"
       style="stroke:#ffffff;stroke-width:2;stroke-miterlimit:4;stroke-dasharray:none">
      <path
         d="m 179.965,72.515 c -1.934,-1.242 -0.439,-5.375 4.563,-10.375 m 0,0 c 2.897,-3.779 8.858,-1.576 9.531,-3.218"
         stroke="rgb(0, 0, 0)"
         stroke-width="1"
         fill="none"
         id="path4380"
         style="stroke:#ffffff;stroke-width:2;stroke-miterlimit:4;stroke-dasharray:none" />
    </g>
    <g
       filter="url(#pencilTextureFilter)"
       id="g4386"
       style="stroke:#ffffff;stroke-width:2;stroke-miterlimit:4;stroke-dasharray:none">
      <path
         d="m 180.985,94.465 c 0.345,1.164 0.371,2.118 0.348,2.653 m 0.195,-0.228 c 0,0 0,0 0,0 m -0.607,0.949 c -2.336,-1.01 -6.355,0.451 -9.179,-0.434"
         stroke="rgb(0, 0, 0)"
         stroke-width="1"
         fill="none"
         id="path4384"
         style="stroke:#ffffff;stroke-width:2;stroke-miterlimit:4;stroke-dasharray:none" />
    </g>
    <g
       filter="url(#pencilTextureFilter)"
       id="g4390"
       style="stroke:#ffffff;stroke-width:2;stroke-miterlimit:4;stroke-dasharray:none">
      <path
         d="m 185.403,93.64 c 0.057,0.857 0.871,2.311 1.125,3.438 m -1.125,-3.438 c 0.193,0.765 0.355,1.63 1.125,3.438 m 0,0 c 0,0 0,0 0,0 m 0,0 c 0,0 0,0 0,0 m 0,0 c -1.725,-0.387 10.509,2.529 16.625,0.812 m -16.625,-0.812 c -0.219,-0.217 8.483,3.31 16.625,0.812 m 0,0 c 9.063,-1.49 11.493,-1.306 16.125,-9.375 m -16.125,9.375 c 5.796,1.041 9.177,-4.354 16.125,-9.375 m 0,0 c 5.113,-6.724 3.694,-12.963 4.5,-14.75 m -4.5,14.75 c 6.328,-5.491 4.14,-16.908 4.5,-14.75"
         stroke="rgb(0, 0, 0)"
         stroke-width="1"
         fill="none"
         id="path4388"
         style="stroke:#ffffff;stroke-width:2;stroke-miterlimit:4;stroke-dasharray:none" />
    </g>
    <g
       filter="url(#pencilTextureFilter)"
       id="g4394"
       style="stroke:#ffffff;stroke-width:2;stroke-miterlimit:4;stroke-dasharray:none">
      <path
         d="m 217.403,256.14 c -1.497,0.175 9.582,-0.461 14.125,0.5 m -14.125,-0.5 c 2.268,0.477 7.982,-2.953 14.125,0.5 m 0,0 c 7.582,0.352 13.776,7.489 13.375,6.75 m -13.375,-6.75 c 4.15,1.317 12.309,8.157 13.375,6.75"
         stroke="rgb(0, 0, 0)"
         stroke-width="1"
         fill="none"
         id="path4392"
         style="stroke:#ffffff;stroke-width:2;stroke-miterlimit:4;stroke-dasharray:none" />
    </g>
    <g
       filter="url(#pencilTextureFilter)"
       id="g4398"
       style="stroke:#ffffff;stroke-width:2;stroke-miterlimit:4;stroke-dasharray:none">
      <path
         d="m 180.028,201.828 c -1.236,0.973 5.128,-2.534 13.312,-0.75 m 0,0 c 5.177,0.136 16.758,3.464 16.5,1.812"
         stroke="rgb(0, 0, 0)"
         stroke-width="1"
         fill="none"
         id="path4396"
         style="stroke:#ffffff;stroke-width:2;stroke-miterlimit:4;stroke-dasharray:none" />
    </g>
    <g
       filter="url(#pencilTextureFilter)"
       id="g4402"
       style="stroke:#ffffff;stroke-width:2;stroke-miterlimit:4;stroke-dasharray:none">
      <path
         d="m 142.278,18.141 c 1.608,1.141 9.465,-1.15 13,0 m -13,0 c 0.662,1.064 10.481,-0.36 13,0 m 0,0 c 6.596,3.336 7.257,18.587 11.5,18.249 m -11.5,-18.249 c 5.068,4.901 4.915,21.555 11.5,18.249 m 0,0 c 1.343,-2.646 1.807,-2.337 6.125,-4.375 m -6.125,4.375 c -0.19,-2.455 3.275,-4.388 6.125,-4.375 m 0,0 c 4.496,-2.426 8.263,3.415 7.375,3.375 m -7.375,-3.375 c 2,-1.848 6.552,3.783 7.375,3.375 m 0,0 c -1.714,0.65 -5.133,7.318 -2.5,9 m 2.5,-9 c -0.739,3.938 -2.11,7.356 -2.5,9 m 0,0 c 2.241,-0.857 5.699,4.439 4.618,3.769 m -4.618,-3.769 c 1.306,-1.565 4.222,5.451 4.618,3.769"
         stroke="rgb(0, 0, 0)"
         stroke-width="1"
         fill="none"
         id="path4400"
         style="stroke:#ffffff;stroke-width:2;stroke-miterlimit:4;stroke-dasharray:none" />
    </g>
  </g>
</svg>
