<?xml version="1.0" encoding="UTF-8" standalone="no"?>
<!-- Created with Inkscape (http://www.inkscape.org/) -->

<svg
   xmlns:dc="http://purl.org/dc/elements/1.1/"
   xmlns:cc="http://creativecommons.org/ns#"
   xmlns:rdf="http://www.w3.org/1999/02/22-rdf-syntax-ns#"
   xmlns:svg="http://www.w3.org/2000/svg"
   xmlns="http://www.w3.org/2000/svg"
   xmlns:sodipodi="http://sodipodi.sourceforge.net/DTD/sodipodi-0.dtd"
   xmlns:inkscape="http://www.inkscape.org/namespaces/inkscape"
   width="210mm"
   height="297mm"
   viewBox="0 0 210 297"
   version="1.1"
   id="svg8"
   inkscape:version="0.92.2 5c3e80d, 2017-08-06"
   sodipodi:docname="minutes.svg">
  <defs
     id="defs2">
    <marker
       inkscape:stockid="Arrow1Lstart"
       orient="auto"
       refY="0.0"
       refX="0.0"
       id="marker2222"
       style="overflow:visible"
       inkscape:isstock="true">
      <path
         id="path2220"
         d="M 0.0,0.0 L 5.0,-5.0 L -12.5,0.0 L 5.0,5.0 L 0.0,0.0 z "
         style="fill-rule:evenodd;stroke:#000080;stroke-width:1pt;stroke-opacity:1;fill:#000080;fill-opacity:1"
         transform="scale(0.8) translate(12.5,0)" />
    </marker>
    <marker
       inkscape:stockid="Arrow1Lstart"
       orient="auto"
       refY="0.0"
       refX="0.0"
       id="marker2212"
       style="overflow:visible"
       inkscape:isstock="true">
      <path
         id="path2210"
         d="M 0.0,0.0 L 5.0,-5.0 L -12.5,0.0 L 5.0,5.0 L 0.0,0.0 z "
         style="fill-rule:evenodd;stroke:#000080;stroke-width:1pt;stroke-opacity:1;fill:#000080;fill-opacity:1"
         transform="scale(0.8) translate(12.5,0)" />
    </marker>
    <marker
       inkscape:isstock="true"
       style="overflow:visible"
       id="marker2190"
       refX="0.0"
       refY="0.0"
       orient="auto"
       inkscape:stockid="Arrow1Lstart">
      <path
         transform="scale(0.8) translate(12.5,0)"
         style="fill-rule:evenodd;stroke:#000080;stroke-width:1pt;stroke-opacity:1;fill:#000080;fill-opacity:1"
         d="M 0.0,0.0 L 5.0,-5.0 L -12.5,0.0 L 5.0,5.0 L 0.0,0.0 z "
         id="path2188" />
    </marker>
    <marker
       inkscape:isstock="true"
       style="overflow:visible"
       id="marker2086"
       refX="0.0"
       refY="0.0"
       orient="auto"
       inkscape:stockid="Arrow1Lstart">
      <path
         transform="scale(0.8) translate(12.5,0)"
         style="fill-rule:evenodd;stroke:#000080;stroke-width:1pt;stroke-opacity:1;fill:#000080;fill-opacity:1"
         d="M 0.0,0.0 L 5.0,-5.0 L -12.5,0.0 L 5.0,5.0 L 0.0,0.0 z "
         id="path2084" />
    </marker>
  </defs>
  <sodipodi:namedview
     id="base"
     pagecolor="#ffffff"
     bordercolor="#666666"
     borderopacity="1.0"
     inkscape:pageopacity="0.0"
     inkscape:pageshadow="2"
     inkscape:zoom="0.7"
     inkscape:cx="59.877006"
     inkscape:cy="759.59552"
     inkscape:document-units="mm"
     inkscape:current-layer="layer1"
     showgrid="false"
     showguides="true"
     inkscape:snap-text-baseline="true"
     inkscape:guide-bbox="true"
     inkscape:window-width="1920"
     inkscape:window-height="1016"
     inkscape:window-x="1050"
     inkscape:window-y="403"
     inkscape:window-maximized="1" />
  <metadata
     id="metadata5">
    <rdf:RDF>
      <cc:Work
         rdf:about="">
        <dc:format>image/svg+xml</dc:format>
        <dc:type
           rdf:resource="http://purl.org/dc/dcmitype/StillImage" />
        <dc:title></dc:title>
      </cc:Work>
    </rdf:RDF>
  </metadata>
  <g
     inkscape:label="Layer 1"
     inkscape:groupmode="layer"
     id="layer1">
    <rect
       style="color:#000000;display:inline;overflow:visible;visibility:visible;opacity:1;fill:#ececec;fill-opacity:1;fill-rule:nonzero;stroke:none;stroke-width:1.60000002;stroke-linecap:round;stroke-linejoin:round;stroke-miterlimit:4;stroke-dasharray:none;stroke-dashoffset:0;stroke-opacity:1;marker:none;enable-background:accumulate"
       id="rect815-5"
       width="88.733482"
       height="148.86913"
       x="107.44235"
       y="8.4825449" />
  </g>
  <g
     inkscape:groupmode="layer"
     id="layer2"
     inkscape:label="Layer 2">
    <flowRoot
       xml:space="preserve"
       id="flowRoot865"
       style="fill:#ffffff;stroke:none;stroke-opacity:1;stroke-width:1px;stroke-linejoin:miter;stroke-linecap:butt;fill-opacity:1;font-family:'Architects Daughter';font-style:normal;font-weight:normal;font-size:16px;-inkscape-font-specification:'Architects Daughter';font-stretch:normal;font-variant:normal;text-anchor:start;text-align:start;writing-mode:lr;line-height:125%;letter-spacing:0px;word-spacing:0px;font-variant-ligatures:normal;font-variant-caps:normal;font-variant-numeric:normal;font-feature-settings:normal;"><flowRegion
         id="flowRegion867"
         style="fill:#ffffff;"><rect
           id="rect869"
           width="201.02036"
           height="63.134533"
           x="92.428955"
           y="212.87732"
           style="fill:#ffffff;" /></flowRegion><flowPara
         id="flowPara871"></flowPara></flowRoot>    <text
       id="text1425"
       y="93.459824"
       x="-62.177082"
       style="font-style:normal;font-variant:normal;font-weight:normal;font-stretch:normal;font-size:4.23333311px;line-height:125%;font-family:'Open Sans';-inkscape-font-specification:'Open Sans, Normal';font-variant-ligatures:normal;font-variant-caps:normal;font-variant-numeric:normal;font-feature-settings:normal;text-align:start;letter-spacing:0px;word-spacing:0px;writing-mode:lr-tb;text-anchor:start;fill:#000000;fill-opacity:1;stroke:none;stroke-width:0.26458332px;stroke-linecap:butt;stroke-linejoin:miter;stroke-opacity:1"
       xml:space="preserve"><tspan
         id="tspan1431"
         style="stroke-width:0.26458332px"
         y="93.459824"
         x="-62.177082"
         sodipodi:role="line">default to current time</tspan><tspan
         id="tspan1439"
         style="stroke-width:0.26458332px"
         y="98.751488"
         x="-62.177082"
         sodipodi:role="line">(pre 11:00, 11:00 - 15:00, 15:00+)</tspan></text>
    <g
       id="g2531">
      <rect
         y="8.8834457"
         x="8.2853556"
         height="169.09085"
         width="88.733482"
         id="rect815"
         style="color:#000000;display:inline;overflow:visible;visibility:visible;opacity:1;fill:#ececec;fill-opacity:1;fill-rule:nonzero;stroke:none;stroke-width:1.60000002;stroke-linecap:round;stroke-linejoin:round;stroke-miterlimit:4;stroke-dasharray:none;stroke-dashoffset:0;stroke-opacity:1;marker:none;enable-background:accumulate" />
      <g
         id="g2472"
         style="">
        <rect
           style="color:#000000;display:inline;overflow:visible;visibility:visible;opacity:1;fill:#5f8dd3;fill-opacity:1;fill-rule:nonzero;stroke:#27508d;stroke-width:0.70555556;stroke-linecap:round;stroke-linejoin:round;stroke-miterlimit:4;stroke-dasharray:none;stroke-dashoffset:0;stroke-opacity:1;marker:none;enable-background:accumulate"
           id="rect2406-2"
           width="36.663685"
           height="9.1410828"
           x="53.956104"
           y="164.70833" />
        <text
           xml:space="preserve"
           style="font-style:normal;font-variant:normal;font-weight:normal;font-stretch:normal;font-size:3.67014265px;line-height:125%;font-family:'Open Sans';-inkscape-font-specification:'Open Sans, Normal';font-variant-ligatures:normal;font-variant-caps:normal;font-variant-numeric:normal;font-feature-settings:normal;text-align:start;letter-spacing:0px;word-spacing:0px;writing-mode:lr-tb;text-anchor:start;fill:#ffffff;fill-opacity:1;stroke:none;stroke-width:0.26458332px;stroke-linecap:butt;stroke-linejoin:miter;stroke-opacity:1;"
           x="55.477257"
           y="171.2052"
           id="text2425"
           transform="scale(1.0037485,0.99626549)"><tspan
             sodipodi:role="line"
             x="55.477257"
             y="171.2052"
             style="stroke-width:0.26458332px;fill:#ffffff;fill-opacity:1;"
             id="tspan2427">Save and add more</tspan></text>
        <rect
           style="color:#000000;display:inline;overflow:visible;visibility:visible;opacity:1;fill:#808080;fill-opacity:1;fill-rule:nonzero;stroke:#4d4d4d;stroke-width:0.70555556;stroke-linecap:round;stroke-linejoin:round;stroke-miterlimit:4;stroke-dasharray:none;stroke-dashoffset:0;stroke-opacity:1;marker:none;enable-background:accumulate"
           id="rect2406-2-8"
           width="36.663685"
           height="9.1410828"
           x="13.040181"
           y="164.67351" />
        <text
           xml:space="preserve"
           style="font-style:normal;font-variant:normal;font-weight:normal;font-stretch:normal;font-size:3.67014265px;line-height:125%;font-family:'Open Sans';-inkscape-font-specification:'Open Sans, Normal';font-variant-ligatures:normal;font-variant-caps:normal;font-variant-numeric:normal;font-feature-settings:normal;text-align:start;letter-spacing:0px;word-spacing:0px;writing-mode:lr-tb;text-anchor:start;fill:#ffffff;fill-opacity:1;stroke:none;stroke-width:0.26458332px;stroke-linecap:butt;stroke-linejoin:miter;stroke-opacity:1;"
           x="27.373316"
           y="171.17024"
           id="text2425-8"
           transform="scale(1.0037485,0.99626549)"><tspan
             sodipodi:role="line"
             x="27.373316"
             y="171.17024"
             style="stroke-width:0.26458332px;fill:#ffffff;"
             id="tspan2427-6">Save</tspan></text>
      </g>
      <rect
         y="8.8834457"
         x="8.2853556"
         height="15.100731"
         width="88.733482"
         id="rect875"
         style="color:#000000;display:inline;overflow:visible;visibility:visible;opacity:1;fill:#cccccc;fill-opacity:1;fill-rule:nonzero;stroke:none;stroke-width:1.60000002;stroke-linecap:round;stroke-linejoin:round;stroke-miterlimit:4;stroke-dasharray:none;stroke-dashoffset:0;stroke-opacity:1;marker:none;enable-background:accumulate" />
      <text
         id="text819"
         y="18.033348"
         x="15.474916"
         style="font-style:normal;font-variant:normal;font-weight:normal;font-stretch:normal;font-size:4.23333311px;line-height:125%;font-family:'Architects Daughter';-inkscape-font-specification:'Architects Daughter';font-variant-ligatures:normal;font-variant-caps:normal;font-variant-numeric:normal;font-feature-settings:normal;text-align:start;letter-spacing:0px;word-spacing:0px;writing-mode:lr-tb;text-anchor:start;fill:#000000;fill-opacity:1;stroke:none;stroke-width:0.26458332px;stroke-linecap:butt;stroke-linejoin:miter;stroke-opacity:1"
         xml:space="preserve"><tspan
           style="font-style:normal;font-variant:normal;font-weight:bold;font-stretch:normal;font-family:'Open Sans';-inkscape-font-specification:'Open Sans';stroke-width:0.26458332px"
           y="18.033348"
           x="15.474916"
           id="tspan817"
           sodipodi:role="line">Enter Minutes</tspan></text>
      <text
         id="text859"
         y="40.057949"
         x="25.256973"
         style="font-style:normal;font-variant:normal;font-weight:normal;font-stretch:normal;font-size:4.23333311px;line-height:125%;font-family:'Open Sans';-inkscape-font-specification:'Open Sans';font-variant-ligatures:normal;font-variant-caps:normal;font-variant-numeric:normal;font-feature-settings:normal;text-align:start;letter-spacing:0px;word-spacing:0px;writing-mode:lr-tb;text-anchor:start;fill:#000000;fill-opacity:1;stroke:none;stroke-width:0.26458332px;stroke-linecap:butt;stroke-linejoin:miter;stroke-opacity:1"
         xml:space="preserve"><tspan
           id="tspan861"
           style="font-style:normal;font-variant:normal;font-weight:bold;font-stretch:normal;font-family:'Open Sans';-inkscape-font-specification:'Open Sans';stroke-width:0.26458332px"
           y="40.057949"
           x="25.256973"
           sodipodi:role="line">Monday 30th November</tspan></text>
      <rect
         y="48.343307"
         x="22.065386"
         height="11.49259"
         width="58.398392"
         id="rect873"
         style="color:#000000;display:inline;overflow:visible;visibility:visible;opacity:1;fill:#ffffff;fill-opacity:1;fill-rule:nonzero;stroke:none;stroke-width:1.60000002;stroke-linecap:round;stroke-linejoin:round;stroke-miterlimit:4;stroke-dasharray:none;stroke-dashoffset:0;stroke-opacity:1;marker:none;enable-background:accumulate" />
      <text
         id="text879"
         y="34.044388"
         x="15.635266"
         style="font-style:normal;font-variant:normal;font-weight:normal;font-stretch:normal;font-size:4.23333311px;line-height:125%;font-family:'Architects Daughter';-inkscape-font-specification:'Architects Daughter';font-variant-ligatures:normal;font-variant-caps:normal;font-variant-numeric:normal;font-feature-settings:normal;text-align:start;letter-spacing:0px;word-spacing:0px;writing-mode:lr-tb;text-anchor:start;fill:#000000;fill-opacity:1;stroke:none;stroke-width:0.26458332px;stroke-linecap:butt;stroke-linejoin:miter;stroke-opacity:1"
         xml:space="preserve"><tspan
           style="font-style:normal;font-variant:normal;font-weight:normal;font-stretch:normal;font-size:4.23333311px;font-family:'Open Sans';-inkscape-font-specification:'Open Sans, Normal';font-variant-ligatures:normal;font-variant-caps:normal;font-variant-numeric:normal;font-feature-settings:normal;text-align:start;writing-mode:lr-tb;text-anchor:start;stroke-width:0.26458332px"
           y="34.044388"
           x="15.635266"
           id="tspan877"
           sodipodi:role="line">You're adding movement minutes for</tspan></text>
      <text
         id="text883"
         y="72.306908"
         x="15.234363"
         style="font-style:normal;font-variant:normal;font-weight:normal;font-stretch:normal;font-size:4.23333311px;line-height:125%;font-family:'Open Sans';-inkscape-font-specification:'Open Sans, Normal';font-variant-ligatures:normal;font-variant-caps:normal;font-variant-numeric:normal;font-feature-settings:normal;text-align:start;letter-spacing:0px;word-spacing:0px;writing-mode:lr-tb;text-anchor:start;fill:#000000;fill-opacity:1;stroke:none;stroke-width:0.26458332px;stroke-linecap:butt;stroke-linejoin:miter;stroke-opacity:1"
         xml:space="preserve"><tspan
           style="stroke-width:0.26458332px"
           y="72.306908"
           x="15.234363"
           id="tspan881"
           sodipodi:role="line">What time of day did you get these</tspan><tspan
           id="tspan885"
           style="stroke-width:0.26458332px"
           y="77.598572"
           x="15.234363"
           sodipodi:role="line">minutes?</tspan></text>
      <text
         xml:space="preserve"
         style="font-style:normal;font-variant:normal;font-weight:normal;font-stretch:normal;font-size:4.23333311px;line-height:125%;font-family:'Open Sans';-inkscape-font-specification:'Open Sans, Normal';font-variant-ligatures:normal;font-variant-caps:normal;font-variant-numeric:normal;font-feature-settings:normal;text-align:start;letter-spacing:0px;word-spacing:0px;writing-mode:lr-tb;text-anchor:start;fill:#000000;fill-opacity:1;stroke:none;stroke-width:0.26458332px;stroke-linecap:butt;stroke-linejoin:miter;stroke-opacity:1"
         x="14.363094"
         y="119.35117"
         id="text1363"><tspan
           sodipodi:role="line"
           id="tspan1361"
           x="14.363094"
           y="119.35117"
           style="stroke-width:0.26458332px">And did you get these minutes indoors</tspan><tspan
           sodipodi:role="line"
           x="14.363094"
           y="124.64283"
           style="stroke-width:0.26458332px"
           id="tspan1365">or outdoors?</tspan></text>
      <text
         xml:space="preserve"
         style="font-style:normal;font-variant:normal;font-weight:normal;font-stretch:normal;font-size:4.23333311px;line-height:125%;font-family:'Open Sans';-inkscape-font-specification:'Open Sans, Normal';font-variant-ligatures:normal;font-variant-caps:normal;font-variant-numeric:normal;font-feature-settings:normal;text-align:start;letter-spacing:0px;word-spacing:0px;writing-mode:lr-tb;text-anchor:start;fill:#000000;fill-opacity:1;stroke:none;stroke-width:0.26458332px;stroke-linecap:butt;stroke-linejoin:miter;stroke-opacity:1"
         x="26.269344"
         y="55.20863"
         id="text1369"><tspan
           sodipodi:role="line"
           id="tspan1367"
           x="26.269344"
           y="55.20863"
           style="fill:#b3b3b3;stroke-width:0.26458332px">enter number of minutes</tspan></text>
      <g
         id="g2404">
        <path
           inkscape:connector-curvature="0"
           id="path912"
           d="m 24.374496,88.479866 a 0.35281306,0.35281306 0 0 0 -0.347782,0.3576 v 1.324467 a 0.35281306,0.35281306 0 1 0 0.704866,0 v -1.324467 a 0.35281306,0.35281306 0 0 0 -0.357084,-0.3576 z m 0.03721,2.344041 c -0.740738,-0.0052 -1.484202,0.177401 -2.150773,0.546738 -1.333144,0.738672 -2.162141,2.120982 -2.162142,3.619415 a 0.35281306,0.35281306 0 1 0 0.705384,0 c 10e-7,-1.238644 0.682861,-2.384046 1.798856,-3.002399 1.115995,-0.618355 2.491229,-0.608147 3.597713,0.02584 1.106484,0.633987 1.77247,1.788685 1.753899,3.027199 a 0.35281306,0.35281306 0 1 0 0.704866,0.01 c 0.02247,-1.498501 -0.785321,-2.892921 -2.107364,-3.650418 -0.661023,-0.378748 -1.399701,-0.57096 -2.140439,-0.576194 z m -5.61361,0.36122 a 0.35281306,0.35281306 0 0 0 -0.167949,0.66611 l 1.242302,0.675925 a 0.35288881,0.35288881 0 1 0 0.337963,-0.619598 l -1.244368,-0.677479 a 0.35281306,0.35281306 0 0 0 -0.167948,-0.04496 z m 11.152291,0 a 0.35281306,0.35281306 0 0 0 -0.158131,0.04496 l -1.242301,0.677479 a 0.35281306,0.35281306 0 1 0 0.336413,0.619598 l 1.241784,-0.675925 a 0.35281306,0.35281306 0 0 0 -0.177765,-0.66611 z m -5.570203,2.763659 -2.869076,1.642781 h -2.67994 a 0.35281306,0.35281306 0 1 0 0,0.704864 h 2.869593 l 2.679423,-1.535301 2.67994,1.535301 h 2.867009 a 0.35281306,0.35281306 0 1 0 0,-0.704864 h -2.679941 z"
           style="color:#000000;font-style:normal;font-variant:normal;font-weight:normal;font-stretch:normal;font-size:medium;line-height:normal;font-family:sans-serif;font-variant-ligatures:normal;font-variant-position:normal;font-variant-caps:normal;font-variant-numeric:normal;font-variant-alternates:normal;font-feature-settings:normal;text-indent:0;text-align:start;text-decoration:none;text-decoration-line:none;text-decoration-style:solid;text-decoration-color:#000000;letter-spacing:normal;word-spacing:normal;text-transform:none;writing-mode:lr-tb;direction:ltr;text-orientation:mixed;dominant-baseline:auto;baseline-shift:baseline;text-anchor:start;white-space:normal;shape-padding:0;clip-rule:nonzero;display:inline;overflow:visible;visibility:visible;opacity:1;isolation:auto;mix-blend-mode:normal;color-interpolation:sRGB;color-interpolation-filters:linearRGB;solid-color:#000000;solid-opacity:1;vector-effect:none;fill:#4d4d4d;fill-opacity:1;fill-rule:nonzero;stroke:none;stroke-width:0.70555556;stroke-linecap:round;stroke-linejoin:round;stroke-miterlimit:4;stroke-dasharray:none;stroke-dashoffset:0;stroke-opacity:1;marker:none;color-rendering:auto;image-rendering:auto;shape-rendering:auto;text-rendering:auto;enable-background:accumulate" />
        <text
           xml:space="preserve"
           style="font-style:normal;font-variant:normal;font-weight:600;font-stretch:normal;font-size:2.82222223px;line-height:125%;font-family:'Open Sans';-inkscape-font-specification:'Open Sans, Semi-Bold';font-variant-ligatures:normal;font-variant-caps:normal;font-variant-numeric:normal;font-feature-settings:normal;text-align:start;letter-spacing:0px;word-spacing:0px;writing-mode:lr-tb;text-anchor:start;fill:#4d4d4d;fill-opacity:1;stroke:none;stroke-width:0.26458332px;stroke-linecap:butt;stroke-linejoin:miter;stroke-opacity:1"
           x="18.529692"
           y="101.29068"
           id="text994"><tspan
             sodipodi:role="line"
             id="tspan992"
             x="18.529692"
             y="101.29068"
             style="font-style:normal;font-variant:normal;font-weight:600;font-stretch:normal;font-size:2.82222223px;font-family:'Open Sans';-inkscape-font-specification:'Open Sans, Semi-Bold';font-variant-ligatures:normal;font-variant-caps:normal;font-variant-numeric:normal;font-feature-settings:normal;text-align:start;writing-mode:lr-tb;text-anchor:start;fill:#4d4d4d;stroke-width:0.26458332px">Morning</tspan></text>
        <rect
           rx="3.4095049"
           ry="3.4095049"
           y="81.714188"
           x="41.104912"
           height="24.766911"
           width="19.84375"
           id="rect1198-1"
           style="color:#000000;display:inline;overflow:visible;visibility:visible;opacity:1;fill:#5f8dd3;fill-opacity:1;fill-rule:nonzero;stroke:#3771c8;stroke-width:0.70555556;stroke-linecap:round;stroke-linejoin:round;stroke-miterlimit:4;stroke-dasharray:none;stroke-dashoffset:0;stroke-opacity:1;marker:none;enable-background:accumulate" />
        <text
           xml:space="preserve"
           style="font-style:normal;font-variant:normal;font-weight:600;font-stretch:normal;font-size:2.82222223px;line-height:125%;font-family:'Open Sans';-inkscape-font-specification:'Open Sans, Semi-Bold';font-variant-ligatures:normal;font-variant-caps:normal;font-variant-numeric:normal;font-feature-settings:normal;text-align:start;letter-spacing:0px;word-spacing:0px;writing-mode:lr-tb;text-anchor:start;fill:#ffffff;fill-opacity:1;stroke:none;stroke-width:0.26458332px;stroke-linecap:butt;stroke-linejoin:miter;stroke-opacity:1"
           x="46.12299"
           y="101.29068"
           id="text994-8"><tspan
             sodipodi:role="line"
             id="tspan992-7"
             x="46.12299"
             y="101.29068"
             style="font-style:normal;font-variant:normal;font-weight:600;font-stretch:normal;font-size:2.82222223px;font-family:'Open Sans';-inkscape-font-specification:'Open Sans, Semi-Bold';font-variant-ligatures:normal;font-variant-caps:normal;font-variant-numeric:normal;font-feature-settings:normal;text-align:start;writing-mode:lr-tb;text-anchor:start;fill:#ffffff;stroke-width:0.26458332px">Midday</tspan></text>
        <path
           style="color:#000000;font-style:normal;font-variant:normal;font-weight:normal;font-stretch:normal;font-size:medium;line-height:normal;font-family:sans-serif;font-variant-ligatures:normal;font-variant-position:normal;font-variant-caps:normal;font-variant-numeric:normal;font-variant-alternates:normal;font-feature-settings:normal;text-indent:0;text-align:start;text-decoration:none;text-decoration-line:none;text-decoration-style:solid;text-decoration-color:#000000;letter-spacing:normal;word-spacing:normal;text-transform:none;writing-mode:lr-tb;direction:ltr;text-orientation:mixed;dominant-baseline:auto;baseline-shift:baseline;text-anchor:start;white-space:normal;shape-padding:0;clip-rule:nonzero;display:inline;overflow:visible;visibility:visible;opacity:1;isolation:auto;mix-blend-mode:normal;color-interpolation:sRGB;color-interpolation-filters:linearRGB;solid-color:#000000;solid-opacity:1;vector-effect:none;fill:#4d4d4d;fill-opacity:1;fill-rule:nonzero;stroke:none;stroke-width:0.70555556;stroke-linecap:round;stroke-linejoin:round;stroke-miterlimit:4;stroke-dasharray:none;stroke-dashoffset:0;stroke-opacity:1;marker:none;color-rendering:auto;image-rendering:auto;shape-rendering:auto;text-rendering:auto;enable-background:accumulate"
           d="m 78.140129,88.503636 a 0.35281306,0.35281306 0 0 0 -0.347266,0.357084 v 1.324467 a 0.3535155,0.3535155 0 1 0 0.706932,0 V 88.86072 a 0.35281306,0.35281306 0 0 0 -0.359666,-0.357084 z m 0.03721,2.343528 c -0.740738,-0.0052 -1.483685,0.177408 -2.150255,0.546735 -1.333143,0.738674 -2.162141,2.120987 -2.162143,3.619411 a 0.3535155,0.3535155 0 1 0 0.706935,0 c 0,-1.238634 0.682863,-2.383521 1.798857,-3.001876 1.115994,-0.618342 2.491229,-0.608666 3.597711,0.02532 1.106485,0.633991 1.770404,1.786622 1.751833,3.025136 a 0.35281306,0.35281306 0 1 0 0.705382,0.0119 c 0.02247,-1.498271 -0.785839,-2.892914 -2.107883,-3.650416 -0.661022,-0.378751 -1.399699,-0.570957 -2.140437,-0.576191 z m -5.611026,0.361217 a 0.35281306,0.35281306 0 0 0 -0.170016,0.664043 l 1.241785,0.677995 a 0.35357048,0.35357048 0 1 0 0.337962,-0.621151 L 72.73426,91.253339 a 0.35281306,0.35281306 0 0 0 -0.167947,-0.04496 z m 11.150224,0 a 0.35281306,0.35281306 0 0 0 -0.158131,0.04496 L 82.3161,91.929268 a 0.35357048,0.35357048 0 0 0 0.337963,0.621151 l 1.242301,-0.677995 a 0.35281306,0.35281306 0 0 0 -0.179832,-0.664043 z m -11.117151,4.376986 a 0.35281306,0.35281306 0 1 0 0,0.705377 h 2.679422 l 2.867525,1.642268 2.867009,-1.642268 h 2.679422 a 0.35281306,0.35281306 0 1 0 0,-0.705377 h -2.867006 l -2.679425,1.535291 -2.679938,-1.535291 z"
           id="path912-8"
           inkscape:connector-curvature="0" />
        <text
           xml:space="preserve"
           style="font-style:normal;font-variant:normal;font-weight:600;font-stretch:normal;font-size:2.82222223px;line-height:125%;font-family:'Open Sans';-inkscape-font-specification:'Open Sans, Semi-Bold';font-variant-ligatures:normal;font-variant-caps:normal;font-variant-numeric:normal;font-feature-settings:normal;text-align:start;letter-spacing:0px;word-spacing:0px;writing-mode:lr-tb;text-anchor:start;fill:#4d4d4d;fill-opacity:1;stroke:none;stroke-width:0.26458332px;stroke-linecap:butt;stroke-linejoin:miter;stroke-opacity:1"
           x="72.713661"
           y="101.29068"
           id="text998"><tspan
             sodipodi:role="line"
             id="tspan996"
             x="72.713661"
             y="101.29068"
             style="font-style:normal;font-variant:normal;font-weight:600;font-stretch:normal;font-size:2.82222223px;font-family:'Open Sans';-inkscape-font-specification:'Open Sans, Semi-Bold';font-variant-ligatures:normal;font-variant-caps:normal;font-variant-numeric:normal;font-feature-settings:normal;text-align:start;writing-mode:lr-tb;text-anchor:start;fill:#4d4d4d;stroke-width:0.26458332px">Evening</tspan></text>
        <path
           style="color:#000000;font-style:normal;font-variant:normal;font-weight:normal;font-stretch:normal;font-size:medium;line-height:normal;font-family:sans-serif;font-variant-ligatures:normal;font-variant-position:normal;font-variant-caps:normal;font-variant-numeric:normal;font-variant-alternates:normal;font-feature-settings:normal;text-indent:0;text-align:start;text-decoration:none;text-decoration-line:none;text-decoration-style:solid;text-decoration-color:#000000;letter-spacing:normal;word-spacing:normal;text-transform:none;writing-mode:lr-tb;direction:ltr;text-orientation:mixed;dominant-baseline:auto;baseline-shift:baseline;text-anchor:start;white-space:normal;shape-padding:0;clip-rule:nonzero;display:inline;overflow:visible;visibility:visible;opacity:1;isolation:auto;mix-blend-mode:normal;color-interpolation:sRGB;color-interpolation-filters:linearRGB;solid-color:#000000;solid-opacity:1;vector-effect:none;fill:#ffffff;fill-opacity:1;fill-rule:nonzero;stroke:none;stroke-width:0.70555556;stroke-linecap:round;stroke-linejoin:round;stroke-miterlimit:4;stroke-dasharray:none;stroke-dashoffset:0;stroke-opacity:1;marker:none;color-rendering:auto;image-rendering:auto;shape-rendering:auto;text-rendering:auto;enable-background:accumulate"
           d="m 51.021691,84.944681 a 0.35281309,0.35281309 0 0 0 -0.347781,0.3576 v 1.154451 a 0.35281309,0.35281309 0 1 0 0.704865,0 v -1.154451 a 0.35281309,0.35281309 0 0 0 -0.357084,-0.3576 z m -4.974889,2.818431 a 0.35281309,0.35281309 0 0 0 -0.163814,0.66611 l 1.097605,0.590145 a 0.35349817,0.35349817 0 1 0 0.333831,-0.623218 l -1.099675,-0.588076 a 0.35281309,0.35281309 0 0 0 -0.167947,-0.04496 z m 9.949262,0 a 0.35281309,0.35281309 0 0 0 -0.158128,0.04496 l -1.099675,0.588076 a 0.35349746,0.35349746 0 0 0 0.333828,0.623218 l 1.099674,-0.590145 a 0.35281309,0.35281309 0 0 0 -0.175699,-0.66611 z m -4.968687,0.0863 c -1.704097,0 -3.093868,1.387703 -3.093868,3.091799 0,1.704097 1.389771,3.093352 3.093868,3.093352 1.704094,0 3.091799,-1.389255 3.091799,-3.093352 0,-1.704096 -1.387705,-3.091799 -3.091799,-3.091799 z m 0,0.704866 c 1.322784,0 2.386933,1.064149 2.386933,2.386933 0,1.322787 -1.064149,2.388487 -2.386933,2.388487 -1.322787,0 -2.388486,-1.0657 -2.388486,-2.388487 0,-1.322784 1.065699,-2.386933 2.388486,-2.386933 z m -3.887102,4.265372 a 0.35281309,0.35281309 0 0 0 -0.0016,5.18e-4 0.35281309,0.35281309 0 0 0 -0.158131,0.04444 l -1.097605,0.588076 a 0.35301108,0.35301108 0 1 0 0.331761,0.623219 l 1.099675,-0.590146 a 0.35281309,0.35281309 0 0 0 -0.174149,-0.666109 z m 7.763867,5.18e-4 a 0.35281309,0.35281309 0 0 0 -0.165881,0.665591 l 1.099675,0.590146 a 0.35349766,0.35349766 0 1 0 0.333827,-0.623219 L 55.072089,92.86461 a 0.35281309,0.35281309 0 0 0 -0.167947,-0.04444 z m -3.882451,2.247922 a 0.35281309,0.35281309 0 0 0 -0.347781,0.359147 v 1.152384 a 0.35281309,0.35281309 0 1 0 0.704865,0 V 95.427237 A 0.35281309,0.35281309 0 0 0 51.021691,95.06809 Z"
           id="path1024"
           inkscape:connector-curvature="0" />
        <rect
           rx="3.4095047"
           ry="3.4095047"
           y="81.71418"
           x="14.457588"
           height="24.766911"
           width="19.84375"
           id="rect1198"
           style="color:#000000;display:inline;overflow:visible;visibility:visible;opacity:1;fill:none;fill-opacity:1;fill-rule:nonzero;stroke:#cccccc;stroke-width:0.70555556;stroke-linecap:round;stroke-linejoin:round;stroke-miterlimit:4;stroke-dasharray:none;stroke-dashoffset:0;stroke-opacity:1;marker:none;enable-background:accumulate" />
        <rect
           rx="3.4095049"
           ry="3.4095049"
           y="81.71418"
           x="68.224701"
           height="24.766911"
           width="19.84375"
           id="rect1198-9"
           style="color:#000000;display:inline;overflow:visible;visibility:visible;opacity:1;fill:none;fill-opacity:1;fill-rule:nonzero;stroke:#cccccc;stroke-width:0.70555556;stroke-linecap:round;stroke-linejoin:round;stroke-miterlimit:4;stroke-dasharray:none;stroke-dashoffset:0;stroke-opacity:1;marker:none;enable-background:accumulate" />
      </g>
      <g
         id="g2363"
         transform="translate(-1.0583333)">
        <rect
           rx="3.4095049"
           ry="3.4095049"
           y="129.26834"
           x="27.875746"
           height="24.766911"
           width="19.84375"
           id="rect1198-4"
           style="color:#000000;display:inline;overflow:visible;visibility:visible;opacity:1;fill:none;fill-opacity:1;fill-rule:nonzero;stroke:#cccccc;stroke-width:0.70555556;stroke-linecap:round;stroke-linejoin:round;stroke-miterlimit:4;stroke-dasharray:none;stroke-dashoffset:0;stroke-opacity:1;marker:none;enable-background:accumulate" />
        <g
           style="fill:#4d4d4d;fill-opacity:1;stroke-width:1.20849299"
           transform="matrix(0.82747689,0,0,0.82747689,6.1652988,21.419878)"
           id="g2311">
          <path
             style="color:#000000;font-style:normal;font-variant:normal;font-weight:normal;font-stretch:normal;font-size:medium;line-height:normal;font-family:sans-serif;font-variant-ligatures:normal;font-variant-position:normal;font-variant-caps:normal;font-variant-numeric:normal;font-variant-alternates:normal;font-feature-settings:normal;text-indent:0;text-align:start;text-decoration:none;text-decoration-line:none;text-decoration-style:solid;text-decoration-color:#000000;letter-spacing:normal;word-spacing:normal;text-transform:none;writing-mode:lr-tb;direction:ltr;text-orientation:mixed;dominant-baseline:auto;baseline-shift:baseline;text-anchor:start;white-space:normal;shape-padding:0;clip-rule:nonzero;display:inline;overflow:visible;visibility:visible;opacity:1;isolation:auto;mix-blend-mode:normal;color-interpolation:sRGB;color-interpolation-filters:linearRGB;solid-color:#000000;solid-opacity:1;vector-effect:none;fill:#4d4d4d;fill-opacity:1;fill-rule:nonzero;stroke:none;stroke-width:0.85265893;stroke-linecap:round;stroke-linejoin:round;stroke-miterlimit:4;stroke-dasharray:none;stroke-dashoffset:0;stroke-opacity:1;marker:none;color-rendering:auto;image-rendering:auto;shape-rendering:auto;text-rendering:auto;enable-background:accumulate"
             d="m 34.416138,140.06911 c -0.809855,0 -1.462957,0.68156 -1.462957,1.49965 v 1.71772 c -0.06592,-0.009 -0.132559,-0.0165 -0.201023,-0.0165 h -0.03514 c -0.809861,0 -1.460894,0.68208 -1.460894,1.50016 v 2.95538 c 0,0.81809 0.651036,1.49965 1.460894,1.49965 h 0.03514 2.214851 2.628781 2.214851 0.03514 c 0.809855,0 1.460891,-0.68156 1.460891,-1.49965 v -2.95538 c 0,-0.81808 -0.651031,-1.50016 -1.460891,-1.50016 h -0.03514 c -0.06846,0 -0.135126,0.007 -0.20102,0.0165 v -1.7172 c 0,-0.81808 -0.651037,-1.50017 -1.460894,-1.50017 z m 3.732589,0.70487 c 0.418285,0 0.755509,0.34285 0.755509,0.79478 v 2.02881 c -0.337857,0.27656 -0.554487,0.70135 -0.554487,1.17254 v 0.0155 0.35967 c -0.150323,-0.0259 -0.292359,-0.0277 -0.430982,-0.0243 -0.107805,-0.006 -0.215546,-0.009 -0.322977,-0.009 h -2.628781 c -0.110075,0 -0.220252,0.003 -0.330729,0.009 -0.135343,-0.003 -0.274069,-0.001 -0.421161,0.0243 v -0.35967 -0.0155 c 0,-0.47076 -0.217072,-0.89543 -0.555006,-1.17202 v -2.02933 c 0,-0.45195 0.337743,-0.79272 0.756025,-0.79272 z m -2.949173,0.91002 a 0.35372542,0.35372542 0 1 0 0,0.70745 0.35372542,0.35372542 0 1 0 0,-0.70745 z m 2.103231,0 a 0.35372542,0.35372542 0 1 0 0,0.70745 0.35372542,0.35372542 0 1 0 0,-0.70745 z m -2.096513,1.54874 a 0.35281306,0.35281306 0 0 0 -0.0067,5.2e-4 0.35281306,0.35281306 0 0 0 -0.03514,0 0.35297805,0.35297805 0 0 0 0.03514,0.70486 0.35281306,0.35281306 0 1 0 0.0067,-0.70538 z m 2.103747,0 a 0.35281306,0.35281306 0 0 0 -0.0072,5.2e-4 0.35281306,0.35281306 0 0 0 -0.03514,0 0.35297805,0.35297805 0 0 0 0.03514,0.70486 0.35281306,0.35281306 0 1 0 0.0072,-0.70538 z m -4.593,0.74414 v 5.2e-4 h 0.03514 c 0.109839,0 0.213416,0.0243 0.307475,0.0672 a 0.35281306,0.35281306 0 0 0 0.0677,0.0517 c 0.192371,0.11466 0.332698,0.3156 0.370004,0.56017 0.0034,0.0262 0.0067,0.0525 0.0077,0.0796 9.55e-4,0.0166 0.0031,0.0327 0.0031,0.0496 v 1.11363 0.12661 0.0119 a 0.35281303,0.35281303 0 0 0 0.704866,0.0134 c 3.3e-4,-0.009 0.0015,-0.006 0.0021,-0.0134 0.0026,-0.0377 0.008,-0.0643 0.01344,-0.0873 0.0022,-0.0116 0.0044,-0.0171 0.0067,-0.0258 0.0048,-0.0144 0.0098,-0.0292 0.01292,-0.0336 0.009,-0.0129 0.01404,-0.0188 0.06253,-0.0351 0.03426,-0.0114 0.09327,-0.0184 0.161745,-0.0243 0.12606,-10e-4 0.286784,0.003 0.494543,0.003 h 2.628781 c 0.22734,0 0.401979,-0.006 0.528651,-0.002 0.0541,0.005 0.100724,0.0121 0.129706,0.0217 0.04856,0.0161 0.05152,0.0241 0.06046,0.0367 0.0024,0.003 0.0066,0.0157 0.01033,0.0238 0.0043,0.0147 0.0088,0.0238 0.01292,0.0491 a 0.35281306,0.35281306 0 0 0 0.001,0.004 c 0.0046,0.0226 0.0094,0.0432 0.01085,0.0811 a 0.35281303,0.35281303 0 0 0 0.705385,-0.0134 v -0.0139 -1.24334 c 8.7e-5,-0.01 0.0017,-0.0189 0.0021,-0.0284 7.33e-4,-0.0318 0.0043,-0.0624 0.0083,-0.093 0.0377,-0.24454 0.179615,-0.44601 0.372071,-0.56069 a 0.35281306,0.35281306 0 0 0 0.06821,-0.0532 c 0.09334,-0.0421 0.196117,-0.0661 0.30489,-0.0661 h 0.03514 c 0.418279,0 0.756025,0.3413 0.756025,0.79323 v 2.95486 c 0,0.45194 -0.337743,0.79479 -0.756025,0.79479 h -0.03514 -2.214851 -2.628781 -2.214851 -0.03514 c -0.418283,0 -0.756026,-0.34285 -0.756026,-0.79479 v -2.95486 c 0,-0.45193 0.337746,-0.79323 0.756026,-0.79323 z"
             id="rect1609"
             inkscape:connector-curvature="0" />
          <path
             style="color:#000000;font-style:normal;font-variant:normal;font-weight:normal;font-stretch:normal;font-size:medium;line-height:normal;font-family:sans-serif;font-variant-ligatures:normal;font-variant-position:normal;font-variant-caps:normal;font-variant-numeric:normal;font-variant-alternates:normal;font-feature-settings:normal;text-indent:0;text-align:start;text-decoration:none;text-decoration-line:none;text-decoration-style:solid;text-decoration-color:#000000;letter-spacing:normal;word-spacing:normal;text-transform:none;writing-mode:lr-tb;direction:ltr;text-orientation:mixed;dominant-baseline:auto;baseline-shift:baseline;text-anchor:start;white-space:normal;shape-padding:0;clip-rule:nonzero;display:inline;overflow:visible;visibility:visible;opacity:1;isolation:auto;mix-blend-mode:normal;color-interpolation:sRGB;color-interpolation-filters:linearRGB;solid-color:#000000;solid-opacity:1;vector-effect:none;fill:#4d4d4d;fill-opacity:1;fill-rule:nonzero;stroke:none;stroke-width:0.85265893;stroke-linecap:round;stroke-linejoin:round;stroke-miterlimit:4;stroke-dasharray:none;stroke-dashoffset:0;stroke-opacity:1;marker:none;color-rendering:auto;image-rendering:auto;shape-rendering:auto;text-rendering:auto;enable-background:accumulate"
             d="m 43.39032,136.48774 a 0.35281306,0.35281306 0 0 0 -0.0956,0.0139 0.35281306,0.35281306 0 0 0 -0.0078,0.002 c -0.358505,0.009 -0.696047,0.047 -0.963247,0.13901 -0.147977,0.0509 -0.279398,0.11147 -0.39636,0.20671 -0.116959,0.0952 -0.236503,0.25265 -0.236161,0.45526 l 0.0036,1.82057 c 3.89e-4,0.20164 0.118039,0.35777 0.234609,0.45268 0.116969,0.0952 0.248377,0.15629 0.396359,0.20722 0.210172,0.0723 0.45752,0.11864 0.727604,0.14005 a 0.35281306,0.35281306 0 0 0 -0.01447,0.10386 v 8.0605 c -0.395684,0.0212 -0.796549,0.0862 -1.201476,0.20722 a 0.35281306,0.35281306 0 1 0 0.20102,0.67593 c 0.921055,-0.27512 1.812256,-0.22218 2.720766,0.004 a 0.35350588,0.35350588 0 1 0 0.172083,-0.68575 c -0.388761,-0.0968 -0.785146,-0.16449 -1.187524,-0.19327 v -8.06876 a 0.35281306,0.35281306 0 0 0 -0.01447,-0.10335 c 0.271579,-0.0212 0.519782,-0.0677 0.731221,-0.14056 0.147926,-0.0509 0.279435,-0.11199 0.39636,-0.20722 0.116924,-0.0952 0.237019,-0.2522 0.236677,-0.45475 l -0.0041,-1.82056 c -3.89e-4,-0.20165 -0.117523,-0.35829 -0.234093,-0.4532 -0.116967,-0.0952 -0.248893,-0.15579 -0.396875,-0.20671 -0.26946,-0.0927 -0.610455,-0.13194 -0.97255,-0.14056 a 0.35281306,0.35281306 0 0 0 -0.08992,-0.0139 z m -0.0041,0.70486 a 0.35281306,0.35281306 0 0 0 0.0041,0 c 0.339212,-1e-5 0.646173,0.0514 0.837674,0.11731 0.08243,0.0284 0.12918,0.0559 0.15658,0.0744 l 0.0021,1.6583 c -0.02738,0.0185 -0.0742,0.0456 -0.156577,0.0739 -0.191384,0.0659 -0.496491,0.11727 -0.83561,0.1173 -0.339209,2e-5 -0.646689,-0.0514 -0.83819,-0.1173 -0.08243,-0.0284 -0.128664,-0.0554 -0.156064,-0.0739 l -0.0041,-1.6583 c 0.02707,-0.0184 0.07343,-0.0458 0.156578,-0.0744 0.190614,-0.0656 0.496178,-0.11686 0.833541,-0.11731 z"
             id="path1755"
             inkscape:connector-curvature="0" />
        </g>
        <text
           xml:space="preserve"
           style="font-style:normal;font-variant:normal;font-weight:600;font-stretch:normal;font-size:2.82222223px;line-height:125%;font-family:'Open Sans';-inkscape-font-specification:'Open Sans, Semi-Bold';font-variant-ligatures:normal;font-variant-caps:normal;font-variant-numeric:normal;font-feature-settings:normal;text-align:start;letter-spacing:0px;word-spacing:0px;writing-mode:lr-tb;text-anchor:start;fill:#4d4d4d;fill-opacity:1;stroke:none;stroke-width:0.26458332px;stroke-linecap:butt;stroke-linejoin:miter;stroke-opacity:1"
           x="32.499065"
           y="149.27388"
           id="text994-2"><tspan
             sodipodi:role="line"
             id="tspan992-8"
             x="32.499065"
             y="149.27388"
             style="font-style:normal;font-variant:normal;font-weight:600;font-stretch:normal;font-size:2.82222223px;font-family:'Open Sans';-inkscape-font-specification:'Open Sans, Semi-Bold';font-variant-ligatures:normal;font-variant-caps:normal;font-variant-numeric:normal;font-feature-settings:normal;text-align:start;writing-mode:lr-tb;text-anchor:start;fill:#4d4d4d;stroke-width:0.26458332px">Indoors</tspan></text>
      </g>
      <g
         id="g2355"
         transform="translate(-0.52916667)">
        <rect
           rx="3.4095051"
           ry="3.4095051"
           y="129.26833"
           x="54.069496"
           height="24.766911"
           width="19.84375"
           id="rect1198-1-4"
           style="color:#000000;display:inline;overflow:visible;visibility:visible;opacity:1;fill:#5f8dd3;fill-opacity:1;fill-rule:nonzero;stroke:#3771c8;stroke-width:0.70555556;stroke-linecap:round;stroke-linejoin:round;stroke-miterlimit:4;stroke-dasharray:none;stroke-dashoffset:0;stroke-opacity:1;marker:none;enable-background:accumulate" />
        <path
           style="color:#000000;font-style:normal;font-variant:normal;font-weight:normal;font-stretch:normal;font-size:medium;line-height:normal;font-family:sans-serif;font-variant-ligatures:normal;font-variant-position:normal;font-variant-caps:normal;font-variant-numeric:normal;font-variant-alternates:normal;font-feature-settings:normal;text-indent:0;text-align:start;text-decoration:none;text-decoration-line:none;text-decoration-style:solid;text-decoration-color:#000000;letter-spacing:normal;word-spacing:normal;text-transform:none;writing-mode:lr-tb;direction:ltr;text-orientation:mixed;dominant-baseline:auto;baseline-shift:baseline;text-anchor:start;white-space:normal;shape-padding:0;clip-rule:nonzero;display:inline;overflow:visible;visibility:visible;opacity:1;isolation:auto;mix-blend-mode:normal;color-interpolation:sRGB;color-interpolation-filters:linearRGB;solid-color:#000000;solid-opacity:1;vector-effect:none;fill:#ffffff;fill-opacity:1;fill-rule:evenodd;stroke:none;stroke-width:0.70555556;stroke-linecap:round;stroke-linejoin:miter;stroke-miterlimit:4;stroke-dasharray:none;stroke-dashoffset:0;stroke-opacity:1;color-rendering:auto;image-rendering:auto;shape-rendering:auto;text-rendering:auto;enable-background:accumulate"
           d="m 62.834812,134.17941 v 4e-4 c -0.998406,-2e-5 -1.807985,0.80975 -1.818345,1.80354 -0.840403,0.16402 -1.513349,0.82356 -1.513925,1.7039 a 0.26577769,0.26577769 0 0 0 0,0.002 c 8.29e-4,0.88053 0.674738,1.53501 1.513925,1.69923 -0.0018,0.0316 -0.0072,0.0625 -0.0074,0.0942 a 0.26577769,0.26577769 0 0 0 0,0.001 c -2.8e-5,0.9917 0.803536,1.80089 1.793431,1.81834 v 1.85261 c -0.01503,0.79109 -0.188127,1.15448 -0.404464,1.38001 -0.216341,0.22552 -0.522359,0.33193 -0.869662,0.51191 a 0.26577769,0.26577769 0 1 0 0.244081,0.47103 c 0.298041,-0.15445 0.686015,-0.27793 1.009415,-0.61506 0.323399,-0.33714 0.536649,-0.86793 0.553172,-1.73777 v -0.003 -1.95732 c 0.238907,-0.0931 0.458048,-0.24282 0.656333,-0.4142 0.198553,0.17161 0.418119,0.32153 0.657499,0.41459 v 1.95732 0.003 c 0.01652,0.86984 0.228604,1.40064 0.552006,1.73777 0.3234,0.33713 0.710982,0.46062 1.009023,0.61507 a 0.26577769,0.26577769 0 1 0 0.24447,-0.47104 c -0.347303,-0.17998 -0.653321,-0.28638 -0.86966,-0.5119 -0.216338,-0.22553 -0.38944,-0.58892 -0.404466,-1.38002 v -1.8526 c 0.989899,-0.0175 1.793459,-0.82665 1.793431,-1.81834 a 0.26577769,0.26577769 0 0 0 0,-0.003 c -2e-4,-0.0307 -0.0056,-0.0604 -0.0074,-0.0911 0.839237,-0.16437 1.513481,-0.82004 1.513925,-1.70078 a 0.26577769,0.26577769 0 0 0 0,-0.001 c -9.79e-4,-0.88021 -0.673599,-1.54009 -1.513925,-1.7039 -0.01037,-0.99381 -0.82033,-1.80396 -1.818734,-1.80394 -0.440833,6e-4 -0.82671,0.2291 -1.156173,0.51386 -0.329397,-0.28471 -0.715913,-0.51309 -1.156563,-0.51386 z m 0,0.53137 c 0.366459,6e-4 0.714273,0.15578 0.959195,0.42665 a 0.26577769,0.26577769 0 0 0 0.394346,0 c 0.244689,-0.2706 0.593649,-0.42578 0.959584,-0.42665 0.71869,-1e-5 1.294777,0.57472 1.294757,1.28892 -3.98e-4,0.0371 -0.0023,0.0743 -0.0059,0.11172 a 0.26577769,0.26577769 0 0 0 0.257315,0.29001 c 0.701924,0.0209 1.253526,0.58816 1.255053,1.28581 -3.99e-4,0.70312 -0.559331,1.27248 -1.26673,1.28737 a 0.26577769,0.26577769 0 0 0 -0.257706,0.31064 c 0.01101,0.0665 0.01738,0.13279 0.0179,0.20009 -8.28e-4,0.71302 -0.576087,1.28505 -1.293589,1.28581 -0.366458,-6e-4 -0.715832,-0.15422 -0.960753,-0.4251 a 0.26577769,0.26577769 0 0 0 -0.394345,0 c -0.244999,0.27096 -0.59274,0.42463 -0.959195,0.4251 -0.71869,2e-5 -1.29478,-0.57318 -1.294758,-1.28736 2e-4,-0.0674 0.0055,-0.13349 0.01635,-0.20009 a 0.26577769,0.26577769 0 0 0 -0.25615,-0.30909 c -0.706409,-0.0152 -1.265332,-0.58385 -1.266729,-1.28581 v -10e-4 c 0.0012,-0.69775 0.553034,-1.26473 1.255052,-1.28581 a 0.26577769,0.26577769 0 0 0 0.257315,-0.29002 c -0.0035,-0.0374 -0.0057,-0.0757 -0.0059,-0.11328 8.29e-4,-0.7135 0.57656,-1.28737 1.294758,-1.28736 z"
           id="path1445"
           inkscape:connector-curvature="0" />
        <text
           xml:space="preserve"
           style="font-style:normal;font-variant:normal;font-weight:600;font-stretch:normal;font-size:2.82222223px;line-height:125%;font-family:'Open Sans';-inkscape-font-specification:'Open Sans, Semi-Bold';font-variant-ligatures:normal;font-variant-caps:normal;font-variant-numeric:normal;font-feature-settings:normal;text-align:start;letter-spacing:0px;word-spacing:0px;writing-mode:lr-tb;text-anchor:start;fill:#4d4d4d;fill-opacity:1;stroke:none;stroke-width:0.26458332px;stroke-linecap:butt;stroke-linejoin:miter;stroke-opacity:1"
           x="57.507702"
           y="149.18382"
           id="text994-2-8"><tspan
             sodipodi:role="line"
             id="tspan992-8-9"
             x="57.507702"
             y="149.18382"
             style="font-style:normal;font-variant:normal;font-weight:600;font-stretch:normal;font-size:2.82222223px;font-family:'Open Sans';-inkscape-font-specification:'Open Sans, Semi-Bold';font-variant-ligatures:normal;font-variant-caps:normal;font-variant-numeric:normal;font-feature-settings:normal;text-align:start;writing-mode:lr-tb;text-anchor:start;fill:#ffffff;stroke-width:0.26458332px">Outdoors</tspan></text>
      </g>
    </g>
  </g>
</svg>
